<?xml version="1.0" encoding="utf-8" standalone="no"?>
<!DOCTYPE svg PUBLIC "-//W3C//DTD SVG 1.1//EN"
  "http://www.w3.org/Graphics/SVG/1.1/DTD/svg11.dtd">
<svg xmlns:xlink="http://www.w3.org/1999/xlink" width="360pt" height="360pt" viewBox="0 0 360 360" xmlns="http://www.w3.org/2000/svg" version="1.1">
 <metadata>
  <rdf:RDF xmlns:dc="http://purl.org/dc/elements/1.1/" xmlns:cc="http://creativecommons.org/ns#" xmlns:rdf="http://www.w3.org/1999/02/22-rdf-syntax-ns#">
   <cc:Work>
    <dc:type rdf:resource="http://purl.org/dc/dcmitype/StillImage"/>
    <dc:date>2022-06-30T10:55:05.965052</dc:date>
    <dc:format>image/svg+xml</dc:format>
    <dc:creator>
     <cc:Agent>
      <dc:title>Matplotlib v3.5.2, https://matplotlib.org/</dc:title>
     </cc:Agent>
    </dc:creator>
   </cc:Work>
  </rdf:RDF>
 </metadata>
 <defs>
  <style type="text/css">*{stroke-linejoin: round; stroke-linecap: butt}</style>
 </defs>
 <g id="figure_1">
  <g id="patch_1">
   <path d="M 0 360 
L 360 360 
L 360 0 
L 0 0 
z
" style="fill: #ffffff"/>
  </g>
  <g id="axes_1">
   <g id="patch_2">
    <path d="M 54.02 318.04 
L 349.2 318.04 
L 349.2 10.8 
L 54.02 10.8 
z
" style="fill: #ffffff"/>
   </g>
   <g id="PathCollection_1">
    <defs>
     <path id="m6ee54632d5" d="M 0 3 
C 0.795609 3 1.55874 2.683901 2.12132 2.12132 
C 2.683901 1.55874 3 0.795609 3 0 
C 3 -0.795609 2.683901 -1.55874 2.12132 -2.12132 
C 1.55874 -2.683901 0.795609 -3 0 -3 
C -0.795609 -3 -1.55874 -2.683901 -2.12132 -2.12132 
C -2.683901 -1.55874 -3 -0.795609 -3 0 
C -3 0.795609 -2.683901 1.55874 -2.12132 2.12132 
C -1.55874 2.683901 -0.795609 3 0 3 
z
" style="stroke: #ffffff; stroke-width: 0.48"/>
    </defs>
    <g clip-path="url(#p4751c315a2)">
     <use xlink:href="#m6ee54632d5" x="67.437273" y="142.934685" style="fill: #1f77b4; stroke: #ffffff; stroke-width: 0.48"/>
     <use xlink:href="#m6ee54632d5" x="121.106364" y="113.392378" style="fill: #1f77b4; stroke: #ffffff; stroke-width: 0.48"/>
     <use xlink:href="#m6ee54632d5" x="174.775455" y="83.85007" style="fill: #1f77b4; stroke: #ffffff; stroke-width: 0.48"/>
     <use xlink:href="#m6ee54632d5" x="228.444545" y="54.307762" style="fill: #1f77b4; stroke: #ffffff; stroke-width: 0.48"/>
     <use xlink:href="#m6ee54632d5" x="282.113636" y="24.765455" style="fill: #1f77b4; stroke: #ffffff; stroke-width: 0.48"/>
     <use xlink:href="#m6ee54632d5" x="335.782727" y="142.934685" style="fill: #1f77b4; stroke: #ffffff; stroke-width: 0.48"/>
    </g>
   </g>
   <g id="PathCollection_2">
    <defs>
     <path id="m1149f37884" d="M 0 3 
C 0.795609 3 1.55874 2.683901 2.12132 2.12132 
C 2.683901 1.55874 3 0.795609 3 0 
C 3 -0.795609 2.683901 -1.55874 2.12132 -2.12132 
C 1.55874 -2.683901 0.795609 -3 0 -3 
C -0.795609 -3 -1.55874 -2.683901 -2.12132 -2.12132 
C -2.683901 -1.55874 -3 -0.795609 -3 0 
C -3 0.795609 -2.683901 1.55874 -2.12132 2.12132 
C -1.55874 2.683901 -0.795609 3 0 3 
z
" style="stroke: #1f77b4; stroke-opacity: 0.8"/>
    </defs>
    <g clip-path="url(#p4751c315a2)">
     <use xlink:href="#m1149f37884" x="67.437273" y="304.074545" style="fill: #1f77b4; fill-opacity: 0.8; stroke: #1f77b4; stroke-opacity: 0.8"/>
     <use xlink:href="#m1149f37884" x="121.106364" y="271.846573" style="fill: #1f77b4; fill-opacity: 0.8; stroke: #1f77b4; stroke-opacity: 0.8"/>
     <use xlink:href="#m1149f37884" x="174.775455" y="239.618601" style="fill: #1f77b4; fill-opacity: 0.8; stroke: #1f77b4; stroke-opacity: 0.8"/>
     <use xlink:href="#m1149f37884" x="228.444545" y="207.390629" style="fill: #1f77b4; fill-opacity: 0.8; stroke: #1f77b4; stroke-opacity: 0.8"/>
     <use xlink:href="#m1149f37884" x="282.113636" y="175.162657" style="fill: #1f77b4; fill-opacity: 0.8; stroke: #1f77b4; stroke-opacity: 0.8"/>
     <use xlink:href="#m1149f37884" x="335.782727" y="142.934685" style="fill: #1f77b4; fill-opacity: 0.8; stroke: #1f77b4; stroke-opacity: 0.8"/>
    </g>
   </g>
   <g id="PolyCollection_1">
    <path d="M 67.437273 304.074545 
L 67.437273 304.074545 
L 70.147833 302.44687 
L 72.858393 300.819195 
L 75.568953 299.191519 
L 78.279513 297.563844 
L 80.990073 295.936169 
L 83.700634 294.308493 
L 86.411194 292.680818 
L 89.121754 291.053143 
L 91.832314 289.425467 
L 94.542874 287.797792 
L 97.253434 286.170117 
L 99.963994 284.542441 
L 102.674555 282.914766 
L 105.385115 281.28709 
L 108.095675 279.659415 
L 110.806235 278.03174 
L 113.516795 276.404064 
L 116.227355 274.776389 
L 118.937916 273.148714 
L 121.648476 271.521038 
L 124.359036 269.893363 
L 127.069596 268.265688 
L 129.780156 266.638012 
L 132.490716 265.010337 
L 135.201276 263.382662 
L 137.911837 261.754986 
L 140.622397 260.127311 
L 143.332957 258.499636 
L 146.043517 256.87196 
L 148.754077 255.244285 
L 151.464637 253.616609 
L 154.175197 251.988934 
L 156.885758 250.361259 
L 159.596318 248.733583 
L 162.306878 247.105908 
L 165.017438 245.478233 
L 167.727998 243.850557 
L 170.438558 242.222882 
L 173.149118 240.595207 
L 175.859679 238.967531 
L 178.570239 237.339856 
L 181.280799 235.712181 
L 183.991359 234.084505 
L 186.701919 232.45683 
L 189.412479 230.829154 
L 192.123039 229.201479 
L 194.8336 227.573804 
L 197.54416 225.946128 
L 200.25472 224.318453 
L 202.96528 222.690778 
L 205.67584 221.063102 
L 208.3864 219.435427 
L 211.096961 217.807752 
L 213.807521 216.180076 
L 216.518081 214.552401 
L 219.228641 212.924726 
L 221.939201 211.29705 
L 224.649761 209.669375 
L 227.360321 208.0417 
L 230.070882 206.414024 
L 232.781442 204.786349 
L 235.492002 203.158673 
L 238.202562 201.530998 
L 240.913122 199.903323 
L 243.623682 198.275647 
L 246.334242 196.647972 
L 249.044803 195.020297 
L 251.755363 193.392621 
L 254.465923 191.764946 
L 257.176483 190.137271 
L 259.887043 188.509595 
L 262.597603 186.88192 
L 265.308163 185.254245 
L 268.018724 183.626569 
L 270.729284 181.998894 
L 273.439844 180.371218 
L 276.150404 178.743543 
L 278.860964 177.115868 
L 281.571524 175.488192 
L 284.282084 173.860517 
L 286.992645 172.232842 
L 289.703205 170.605166 
L 292.413765 168.977491 
L 295.124325 167.349816 
L 297.834885 165.72214 
L 300.545445 164.094465 
L 303.256006 162.46679 
L 305.966566 160.839114 
L 308.677126 159.211439 
L 311.387686 157.583764 
L 314.098246 155.956088 
L 316.808806 154.328413 
L 319.519366 152.700737 
L 322.229927 151.073062 
L 324.940487 149.445387 
L 327.651047 147.817711 
L 330.361607 146.190036 
L 333.072167 144.562361 
L 335.782727 142.934685 
L 335.782727 142.934685 
L 335.782727 142.934685 
L 333.072167 144.562361 
L 330.361607 146.190036 
L 327.651047 147.817711 
L 324.940487 149.445387 
L 322.229927 151.073062 
L 319.519366 152.700737 
L 316.808806 154.328413 
L 314.098246 155.956088 
L 311.387686 157.583764 
L 308.677126 159.211439 
L 305.966566 160.839114 
L 303.256006 162.46679 
L 300.545445 164.094465 
L 297.834885 165.72214 
L 295.124325 167.349816 
L 292.413765 168.977491 
L 289.703205 170.605166 
L 286.992645 172.232842 
L 284.282084 173.860517 
L 281.571524 175.488192 
L 278.860964 177.115868 
L 276.150404 178.743543 
L 273.439844 180.371218 
L 270.729284 181.998894 
L 268.018724 183.626569 
L 265.308163 185.254245 
L 262.597603 186.88192 
L 259.887043 188.509595 
L 257.176483 190.137271 
L 254.465923 191.764946 
L 251.755363 193.392621 
L 249.044803 195.020297 
L 246.334242 196.647972 
L 243.623682 198.275647 
L 240.913122 199.903323 
L 238.202562 201.530998 
L 235.492002 203.158673 
L 232.781442 204.786349 
L 230.070882 206.414024 
L 227.360321 208.0417 
L 224.649761 209.669375 
L 221.939201 211.29705 
L 219.228641 212.924726 
L 216.518081 214.552401 
L 213.807521 216.180076 
L 211.096961 217.807752 
L 208.3864 219.435427 
L 205.67584 221.063102 
L 202.96528 222.690778 
L 200.25472 224.318453 
L 197.54416 225.946128 
L 194.8336 227.573804 
L 192.123039 229.201479 
L 189.412479 230.829154 
L 186.701919 232.45683 
L 183.991359 234.084505 
L 181.280799 235.712181 
L 178.570239 237.339856 
L 175.859679 238.967531 
L 173.149118 240.595207 
L 170.438558 242.222882 
L 167.727998 243.850557 
L 165.017438 245.478233 
L 162.306878 247.105908 
L 159.596318 248.733583 
L 156.885758 250.361259 
L 154.175197 251.988934 
L 151.464637 253.616609 
L 148.754077 255.244285 
L 146.043517 256.87196 
L 143.332957 258.499636 
L 140.622397 260.127311 
L 137.911837 261.754986 
L 135.201276 263.382662 
L 132.490716 265.010337 
L 129.780156 266.638012 
L 127.069596 268.265688 
L 124.359036 269.893363 
L 121.648476 271.521038 
L 118.937916 273.148714 
L 116.227355 274.776389 
L 113.516795 276.404064 
L 110.806235 278.03174 
L 108.095675 279.659415 
L 105.385115 281.28709 
L 102.674555 282.914766 
L 99.963994 284.542441 
L 97.253434 286.170117 
L 94.542874 287.797792 
L 91.832314 289.425467 
L 89.121754 291.053143 
L 86.411194 292.680818 
L 83.700634 294.308493 
L 80.990073 295.936169 
L 78.279513 297.563844 
L 75.568953 299.191519 
L 72.858393 300.819195 
L 70.147833 302.44687 
L 67.437273 304.074545 
z
" clip-path="url(#p4751c315a2)" style="fill: #1f77b4; fill-opacity: 0.15"/>
   </g>
   <g id="matplotlib.axis_1">
    <g id="xtick_1">
     <g id="line2d_1">
      <defs>
       <path id="m23a28a811d" d="M 0 0 
L 0 3.5 
" style="stroke: #000000; stroke-width: 0.8"/>
      </defs>
      <g>
       <use xlink:href="#m23a28a811d" x="94.271818" y="318.04" style="stroke: #000000; stroke-width: 0.8"/>
      </g>
     </g>
     <g id="text_1">
      <!-- 2 -->
      <g transform="translate(91.090568 332.638438)scale(0.1 -0.1)">
       <defs>
        <path id="DejaVuSans-32" d="M 1228 531 
L 3431 531 
L 3431 0 
L 469 0 
L 469 531 
Q 828 903 1448 1529 
Q 2069 2156 2228 2338 
Q 2531 2678 2651 2914 
Q 2772 3150 2772 3378 
Q 2772 3750 2511 3984 
Q 2250 4219 1831 4219 
Q 1534 4219 1204 4116 
Q 875 4013 500 3803 
L 500 4441 
Q 881 4594 1212 4672 
Q 1544 4750 1819 4750 
Q 2544 4750 2975 4387 
Q 3406 4025 3406 3419 
Q 3406 3131 3298 2873 
Q 3191 2616 2906 2266 
Q 2828 2175 2409 1742 
Q 1991 1309 1228 531 
z
" transform="scale(0.015625)"/>
       </defs>
       <use xlink:href="#DejaVuSans-32"/>
      </g>
     </g>
    </g>
    <g id="xtick_2">
     <g id="line2d_2">
      <g>
       <use xlink:href="#m23a28a811d" x="147.940909" y="318.04" style="stroke: #000000; stroke-width: 0.8"/>
      </g>
     </g>
     <g id="text_2">
      <!-- 4 -->
      <g transform="translate(144.759659 332.638438)scale(0.1 -0.1)">
       <defs>
        <path id="DejaVuSans-34" d="M 2419 4116 
L 825 1625 
L 2419 1625 
L 2419 4116 
z
M 2253 4666 
L 3047 4666 
L 3047 1625 
L 3713 1625 
L 3713 1100 
L 3047 1100 
L 3047 0 
L 2419 0 
L 2419 1100 
L 313 1100 
L 313 1709 
L 2253 4666 
z
" transform="scale(0.015625)"/>
       </defs>
       <use xlink:href="#DejaVuSans-34"/>
      </g>
     </g>
    </g>
    <g id="xtick_3">
     <g id="line2d_3">
      <g>
       <use xlink:href="#m23a28a811d" x="201.61" y="318.04" style="stroke: #000000; stroke-width: 0.8"/>
      </g>
     </g>
     <g id="text_3">
      <!-- 6 -->
      <g transform="translate(198.42875 332.638438)scale(0.1 -0.1)">
       <defs>
        <path id="DejaVuSans-36" d="M 2113 2584 
Q 1688 2584 1439 2293 
Q 1191 2003 1191 1497 
Q 1191 994 1439 701 
Q 1688 409 2113 409 
Q 2538 409 2786 701 
Q 3034 994 3034 1497 
Q 3034 2003 2786 2293 
Q 2538 2584 2113 2584 
z
M 3366 4563 
L 3366 3988 
Q 3128 4100 2886 4159 
Q 2644 4219 2406 4219 
Q 1781 4219 1451 3797 
Q 1122 3375 1075 2522 
Q 1259 2794 1537 2939 
Q 1816 3084 2150 3084 
Q 2853 3084 3261 2657 
Q 3669 2231 3669 1497 
Q 3669 778 3244 343 
Q 2819 -91 2113 -91 
Q 1303 -91 875 529 
Q 447 1150 447 2328 
Q 447 3434 972 4092 
Q 1497 4750 2381 4750 
Q 2619 4750 2861 4703 
Q 3103 4656 3366 4563 
z
" transform="scale(0.015625)"/>
       </defs>
       <use xlink:href="#DejaVuSans-36"/>
      </g>
     </g>
    </g>
    <g id="xtick_4">
     <g id="line2d_4">
      <g>
       <use xlink:href="#m23a28a811d" x="255.279091" y="318.04" style="stroke: #000000; stroke-width: 0.8"/>
      </g>
     </g>
     <g id="text_4">
      <!-- 8 -->
      <g transform="translate(252.097841 332.638438)scale(0.1 -0.1)">
       <defs>
        <path id="DejaVuSans-38" d="M 2034 2216 
Q 1584 2216 1326 1975 
Q 1069 1734 1069 1313 
Q 1069 891 1326 650 
Q 1584 409 2034 409 
Q 2484 409 2743 651 
Q 3003 894 3003 1313 
Q 3003 1734 2745 1975 
Q 2488 2216 2034 2216 
z
M 1403 2484 
Q 997 2584 770 2862 
Q 544 3141 544 3541 
Q 544 4100 942 4425 
Q 1341 4750 2034 4750 
Q 2731 4750 3128 4425 
Q 3525 4100 3525 3541 
Q 3525 3141 3298 2862 
Q 3072 2584 2669 2484 
Q 3125 2378 3379 2068 
Q 3634 1759 3634 1313 
Q 3634 634 3220 271 
Q 2806 -91 2034 -91 
Q 1263 -91 848 271 
Q 434 634 434 1313 
Q 434 1759 690 2068 
Q 947 2378 1403 2484 
z
M 1172 3481 
Q 1172 3119 1398 2916 
Q 1625 2713 2034 2713 
Q 2441 2713 2670 2916 
Q 2900 3119 2900 3481 
Q 2900 3844 2670 4047 
Q 2441 4250 2034 4250 
Q 1625 4250 1398 4047 
Q 1172 3844 1172 3481 
z
" transform="scale(0.015625)"/>
       </defs>
       <use xlink:href="#DejaVuSans-38"/>
      </g>
     </g>
    </g>
    <g id="xtick_5">
     <g id="line2d_5">
      <g>
       <use xlink:href="#m23a28a811d" x="308.948182" y="318.04" style="stroke: #000000; stroke-width: 0.8"/>
      </g>
     </g>
     <g id="text_5">
      <!-- 10 -->
      <g transform="translate(302.585682 332.638438)scale(0.1 -0.1)">
       <defs>
        <path id="DejaVuSans-31" d="M 794 531 
L 1825 531 
L 1825 4091 
L 703 3866 
L 703 4441 
L 1819 4666 
L 2450 4666 
L 2450 531 
L 3481 531 
L 3481 0 
L 794 0 
L 794 531 
z
" transform="scale(0.015625)"/>
        <path id="DejaVuSans-30" d="M 2034 4250 
Q 1547 4250 1301 3770 
Q 1056 3291 1056 2328 
Q 1056 1369 1301 889 
Q 1547 409 2034 409 
Q 2525 409 2770 889 
Q 3016 1369 3016 2328 
Q 3016 3291 2770 3770 
Q 2525 4250 2034 4250 
z
M 2034 4750 
Q 2819 4750 3233 4129 
Q 3647 3509 3647 2328 
Q 3647 1150 3233 529 
Q 2819 -91 2034 -91 
Q 1250 -91 836 529 
Q 422 1150 422 2328 
Q 422 3509 836 4129 
Q 1250 4750 2034 4750 
z
" transform="scale(0.015625)"/>
       </defs>
       <use xlink:href="#DejaVuSans-31"/>
       <use xlink:href="#DejaVuSans-30" x="63.623047"/>
      </g>
     </g>
    </g>
    <g id="text_6">
     <!-- Rain Fall -->
     <g transform="translate(180.775625 346.316563)scale(0.1 -0.1)">
      <defs>
       <path id="DejaVuSans-52" d="M 2841 2188 
Q 3044 2119 3236 1894 
Q 3428 1669 3622 1275 
L 4263 0 
L 3584 0 
L 2988 1197 
Q 2756 1666 2539 1819 
Q 2322 1972 1947 1972 
L 1259 1972 
L 1259 0 
L 628 0 
L 628 4666 
L 2053 4666 
Q 2853 4666 3247 4331 
Q 3641 3997 3641 3322 
Q 3641 2881 3436 2590 
Q 3231 2300 2841 2188 
z
M 1259 4147 
L 1259 2491 
L 2053 2491 
Q 2509 2491 2742 2702 
Q 2975 2913 2975 3322 
Q 2975 3731 2742 3939 
Q 2509 4147 2053 4147 
L 1259 4147 
z
" transform="scale(0.015625)"/>
       <path id="DejaVuSans-61" d="M 2194 1759 
Q 1497 1759 1228 1600 
Q 959 1441 959 1056 
Q 959 750 1161 570 
Q 1363 391 1709 391 
Q 2188 391 2477 730 
Q 2766 1069 2766 1631 
L 2766 1759 
L 2194 1759 
z
M 3341 1997 
L 3341 0 
L 2766 0 
L 2766 531 
Q 2569 213 2275 61 
Q 1981 -91 1556 -91 
Q 1019 -91 701 211 
Q 384 513 384 1019 
Q 384 1609 779 1909 
Q 1175 2209 1959 2209 
L 2766 2209 
L 2766 2266 
Q 2766 2663 2505 2880 
Q 2244 3097 1772 3097 
Q 1472 3097 1187 3025 
Q 903 2953 641 2809 
L 641 3341 
Q 956 3463 1253 3523 
Q 1550 3584 1831 3584 
Q 2591 3584 2966 3190 
Q 3341 2797 3341 1997 
z
" transform="scale(0.015625)"/>
       <path id="DejaVuSans-69" d="M 603 3500 
L 1178 3500 
L 1178 0 
L 603 0 
L 603 3500 
z
M 603 4863 
L 1178 4863 
L 1178 4134 
L 603 4134 
L 603 4863 
z
" transform="scale(0.015625)"/>
       <path id="DejaVuSans-6e" d="M 3513 2113 
L 3513 0 
L 2938 0 
L 2938 2094 
Q 2938 2591 2744 2837 
Q 2550 3084 2163 3084 
Q 1697 3084 1428 2787 
Q 1159 2491 1159 1978 
L 1159 0 
L 581 0 
L 581 3500 
L 1159 3500 
L 1159 2956 
Q 1366 3272 1645 3428 
Q 1925 3584 2291 3584 
Q 2894 3584 3203 3211 
Q 3513 2838 3513 2113 
z
" transform="scale(0.015625)"/>
       <path id="DejaVuSans-20" transform="scale(0.015625)"/>
       <path id="DejaVuSans-46" d="M 628 4666 
L 3309 4666 
L 3309 4134 
L 1259 4134 
L 1259 2759 
L 3109 2759 
L 3109 2228 
L 1259 2228 
L 1259 0 
L 628 0 
L 628 4666 
z
" transform="scale(0.015625)"/>
       <path id="DejaVuSans-6c" d="M 603 4863 
L 1178 4863 
L 1178 0 
L 603 0 
L 603 4863 
z
" transform="scale(0.015625)"/>
      </defs>
      <use xlink:href="#DejaVuSans-52"/>
      <use xlink:href="#DejaVuSans-61" x="67.232422"/>
      <use xlink:href="#DejaVuSans-69" x="128.511719"/>
      <use xlink:href="#DejaVuSans-6e" x="156.294922"/>
      <use xlink:href="#DejaVuSans-20" x="219.673828"/>
      <use xlink:href="#DejaVuSans-46" x="251.460938"/>
      <use xlink:href="#DejaVuSans-61" x="299.855469"/>
      <use xlink:href="#DejaVuSans-6c" x="361.134766"/>
      <use xlink:href="#DejaVuSans-6c" x="388.917969"/>
     </g>
    </g>
   </g>
   <g id="matplotlib.axis_2">
    <g id="ytick_1">
     <g id="line2d_6">
      <defs>
       <path id="m687414f74c" d="M 0 0 
L -3.5 0 
" style="stroke: #000000; stroke-width: 0.8"/>
      </defs>
      <g>
       <use xlink:href="#m687414f74c" x="54.02" y="261.103916" style="stroke: #000000; stroke-width: 0.8"/>
      </g>
     </g>
     <g id="text_7">
      <!-- 2 -->
      <g transform="translate(40.6575 264.903135)scale(0.1 -0.1)">
       <use xlink:href="#DejaVuSans-32"/>
      </g>
     </g>
    </g>
    <g id="ytick_2">
     <g id="line2d_7">
      <g>
       <use xlink:href="#m687414f74c" x="54.02" y="202.019301" style="stroke: #000000; stroke-width: 0.8"/>
      </g>
     </g>
     <g id="text_8">
      <!-- 4 -->
      <g transform="translate(40.6575 205.818519)scale(0.1 -0.1)">
       <use xlink:href="#DejaVuSans-34"/>
      </g>
     </g>
    </g>
    <g id="ytick_3">
     <g id="line2d_8">
      <g>
       <use xlink:href="#m687414f74c" x="54.02" y="142.934685" style="stroke: #000000; stroke-width: 0.8"/>
      </g>
     </g>
     <g id="text_9">
      <!-- 6 -->
      <g transform="translate(40.6575 146.733904)scale(0.1 -0.1)">
       <use xlink:href="#DejaVuSans-36"/>
      </g>
     </g>
    </g>
    <g id="ytick_4">
     <g id="line2d_9">
      <g>
       <use xlink:href="#m687414f74c" x="54.02" y="83.85007" style="stroke: #000000; stroke-width: 0.8"/>
      </g>
     </g>
     <g id="text_10">
      <!-- 8 -->
      <g transform="translate(40.6575 87.649289)scale(0.1 -0.1)">
       <use xlink:href="#DejaVuSans-38"/>
      </g>
     </g>
    </g>
    <g id="ytick_5">
     <g id="line2d_10">
      <g>
       <use xlink:href="#m687414f74c" x="54.02" y="24.765455" style="stroke: #000000; stroke-width: 0.8"/>
      </g>
     </g>
     <g id="text_11">
      <!-- 10 -->
      <g transform="translate(34.295 28.564673)scale(0.1 -0.1)">
       <use xlink:href="#DejaVuSans-31"/>
       <use xlink:href="#DejaVuSans-30" x="63.623047"/>
      </g>
     </g>
    </g>
    <g id="text_12">
     <!-- soil fertility  -->
     <g transform="translate(28.215312 193.979375)rotate(-90)scale(0.1 -0.1)">
      <defs>
       <path id="DejaVuSans-73" d="M 2834 3397 
L 2834 2853 
Q 2591 2978 2328 3040 
Q 2066 3103 1784 3103 
Q 1356 3103 1142 2972 
Q 928 2841 928 2578 
Q 928 2378 1081 2264 
Q 1234 2150 1697 2047 
L 1894 2003 
Q 2506 1872 2764 1633 
Q 3022 1394 3022 966 
Q 3022 478 2636 193 
Q 2250 -91 1575 -91 
Q 1294 -91 989 -36 
Q 684 19 347 128 
L 347 722 
Q 666 556 975 473 
Q 1284 391 1588 391 
Q 1994 391 2212 530 
Q 2431 669 2431 922 
Q 2431 1156 2273 1281 
Q 2116 1406 1581 1522 
L 1381 1569 
Q 847 1681 609 1914 
Q 372 2147 372 2553 
Q 372 3047 722 3315 
Q 1072 3584 1716 3584 
Q 2034 3584 2315 3537 
Q 2597 3491 2834 3397 
z
" transform="scale(0.015625)"/>
       <path id="DejaVuSans-6f" d="M 1959 3097 
Q 1497 3097 1228 2736 
Q 959 2375 959 1747 
Q 959 1119 1226 758 
Q 1494 397 1959 397 
Q 2419 397 2687 759 
Q 2956 1122 2956 1747 
Q 2956 2369 2687 2733 
Q 2419 3097 1959 3097 
z
M 1959 3584 
Q 2709 3584 3137 3096 
Q 3566 2609 3566 1747 
Q 3566 888 3137 398 
Q 2709 -91 1959 -91 
Q 1206 -91 779 398 
Q 353 888 353 1747 
Q 353 2609 779 3096 
Q 1206 3584 1959 3584 
z
" transform="scale(0.015625)"/>
       <path id="DejaVuSans-66" d="M 2375 4863 
L 2375 4384 
L 1825 4384 
Q 1516 4384 1395 4259 
Q 1275 4134 1275 3809 
L 1275 3500 
L 2222 3500 
L 2222 3053 
L 1275 3053 
L 1275 0 
L 697 0 
L 697 3053 
L 147 3053 
L 147 3500 
L 697 3500 
L 697 3744 
Q 697 4328 969 4595 
Q 1241 4863 1831 4863 
L 2375 4863 
z
" transform="scale(0.015625)"/>
       <path id="DejaVuSans-65" d="M 3597 1894 
L 3597 1613 
L 953 1613 
Q 991 1019 1311 708 
Q 1631 397 2203 397 
Q 2534 397 2845 478 
Q 3156 559 3463 722 
L 3463 178 
Q 3153 47 2828 -22 
Q 2503 -91 2169 -91 
Q 1331 -91 842 396 
Q 353 884 353 1716 
Q 353 2575 817 3079 
Q 1281 3584 2069 3584 
Q 2775 3584 3186 3129 
Q 3597 2675 3597 1894 
z
M 3022 2063 
Q 3016 2534 2758 2815 
Q 2500 3097 2075 3097 
Q 1594 3097 1305 2825 
Q 1016 2553 972 2059 
L 3022 2063 
z
" transform="scale(0.015625)"/>
       <path id="DejaVuSans-72" d="M 2631 2963 
Q 2534 3019 2420 3045 
Q 2306 3072 2169 3072 
Q 1681 3072 1420 2755 
Q 1159 2438 1159 1844 
L 1159 0 
L 581 0 
L 581 3500 
L 1159 3500 
L 1159 2956 
Q 1341 3275 1631 3429 
Q 1922 3584 2338 3584 
Q 2397 3584 2469 3576 
Q 2541 3569 2628 3553 
L 2631 2963 
z
" transform="scale(0.015625)"/>
       <path id="DejaVuSans-74" d="M 1172 4494 
L 1172 3500 
L 2356 3500 
L 2356 3053 
L 1172 3053 
L 1172 1153 
Q 1172 725 1289 603 
Q 1406 481 1766 481 
L 2356 481 
L 2356 0 
L 1766 0 
Q 1100 0 847 248 
Q 594 497 594 1153 
L 594 3053 
L 172 3053 
L 172 3500 
L 594 3500 
L 594 4494 
L 1172 4494 
z
" transform="scale(0.015625)"/>
       <path id="DejaVuSans-79" d="M 2059 -325 
Q 1816 -950 1584 -1140 
Q 1353 -1331 966 -1331 
L 506 -1331 
L 506 -850 
L 844 -850 
Q 1081 -850 1212 -737 
Q 1344 -625 1503 -206 
L 1606 56 
L 191 3500 
L 800 3500 
L 1894 763 
L 2988 3500 
L 3597 3500 
L 2059 -325 
z
" transform="scale(0.015625)"/>
      </defs>
      <use xlink:href="#DejaVuSans-73"/>
      <use xlink:href="#DejaVuSans-6f" x="52.099609"/>
      <use xlink:href="#DejaVuSans-69" x="113.28125"/>
      <use xlink:href="#DejaVuSans-6c" x="141.064453"/>
      <use xlink:href="#DejaVuSans-20" x="168.847656"/>
      <use xlink:href="#DejaVuSans-66" x="200.634766"/>
      <use xlink:href="#DejaVuSans-65" x="235.839844"/>
      <use xlink:href="#DejaVuSans-72" x="297.363281"/>
      <use xlink:href="#DejaVuSans-74" x="338.476562"/>
      <use xlink:href="#DejaVuSans-69" x="377.685547"/>
      <use xlink:href="#DejaVuSans-6c" x="405.46875"/>
      <use xlink:href="#DejaVuSans-69" x="433.251953"/>
      <use xlink:href="#DejaVuSans-74" x="461.035156"/>
      <use xlink:href="#DejaVuSans-79" x="500.244141"/>
      <use xlink:href="#DejaVuSans-20" x="559.423828"/>
     </g>
    </g>
   </g>
   <g id="line2d_11">
    <path d="M 67.437273 304.074545 
L 70.147833 302.44687 
L 72.858393 300.819195 
L 75.568953 299.191519 
L 78.279513 297.563844 
L 80.990073 295.936169 
L 83.700634 294.308493 
L 86.411194 292.680818 
L 89.121754 291.053143 
L 91.832314 289.425467 
L 94.542874 287.797792 
L 97.253434 286.170117 
L 99.963994 284.542441 
L 102.674555 282.914766 
L 105.385115 281.28709 
L 108.095675 279.659415 
L 110.806235 278.03174 
L 113.516795 276.404064 
L 116.227355 274.776389 
L 118.937916 273.148714 
L 121.648476 271.521038 
L 124.359036 269.893363 
L 127.069596 268.265688 
L 129.780156 266.638012 
L 132.490716 265.010337 
L 135.201276 263.382662 
L 137.911837 261.754986 
L 140.622397 260.127311 
L 143.332957 258.499636 
L 146.043517 256.87196 
L 148.754077 255.244285 
L 151.464637 253.616609 
L 154.175197 251.988934 
L 156.885758 250.361259 
L 159.596318 248.733583 
L 162.306878 247.105908 
L 165.017438 245.478233 
L 167.727998 243.850557 
L 170.438558 242.222882 
L 173.149118 240.595207 
L 175.859679 238.967531 
L 178.570239 237.339856 
L 181.280799 235.712181 
L 183.991359 234.084505 
L 186.701919 232.45683 
L 189.412479 230.829154 
L 192.123039 229.201479 
L 194.8336 227.573804 
L 197.54416 225.946128 
L 200.25472 224.318453 
L 202.96528 222.690778 
L 205.67584 221.063102 
L 208.3864 219.435427 
L 211.096961 217.807752 
L 213.807521 216.180076 
L 216.518081 214.552401 
L 219.228641 212.924726 
L 221.939201 211.29705 
L 224.649761 209.669375 
L 227.360321 208.0417 
L 230.070882 206.414024 
L 232.781442 204.786349 
L 235.492002 203.158673 
L 238.202562 201.530998 
L 240.913122 199.903323 
L 243.623682 198.275647 
L 246.334242 196.647972 
L 249.044803 195.020297 
L 251.755363 193.392621 
L 254.465923 191.764946 
L 257.176483 190.137271 
L 259.887043 188.509595 
L 262.597603 186.88192 
L 265.308163 185.254245 
L 268.018724 183.626569 
L 270.729284 181.998894 
L 273.439844 180.371218 
L 276.150404 178.743543 
L 278.860964 177.115868 
L 281.571524 175.488192 
L 284.282084 173.860517 
L 286.992645 172.232842 
L 289.703205 170.605166 
L 292.413765 168.977491 
L 295.124325 167.349816 
L 297.834885 165.72214 
L 300.545445 164.094465 
L 303.256006 162.46679 
L 305.966566 160.839114 
L 308.677126 159.211439 
L 311.387686 157.583764 
L 314.098246 155.956088 
L 316.808806 154.328413 
L 319.519366 152.700737 
L 322.229927 151.073062 
L 324.940487 149.445387 
L 327.651047 147.817711 
L 330.361607 146.190036 
L 333.072167 144.562361 
L 335.782727 142.934685 
" clip-path="url(#p4751c315a2)" style="fill: none; stroke: #1f77b4; stroke-width: 2.25; stroke-linecap: square"/>
   </g>
   <g id="patch_3">
    <path d="M 54.02 318.04 
L 54.02 10.8 
" style="fill: none; stroke: #000000; stroke-width: 0.8; stroke-linejoin: miter; stroke-linecap: square"/>
   </g>
   <g id="patch_4">
    <path d="M 54.02 318.04 
L 349.2 318.04 
" style="fill: none; stroke: #000000; stroke-width: 0.8; stroke-linejoin: miter; stroke-linecap: square"/>
   </g>
  </g>
 </g>
 <defs>
  <clipPath id="p4751c315a2">
   <rect x="54.02" y="10.8" width="295.18" height="307.24"/>
  </clipPath>
 </defs>
</svg>
