<?xml version="1.0" encoding="utf-8" standalone="no"?>
<!DOCTYPE svg PUBLIC "-//W3C//DTD SVG 1.1//EN"
  "http://www.w3.org/Graphics/SVG/1.1/DTD/svg11.dtd">
<svg xmlns:xlink="http://www.w3.org/1999/xlink" width="360pt" height="360pt" viewBox="0 0 360 360" xmlns="http://www.w3.org/2000/svg" version="1.1">
 <metadata>
  <rdf:RDF xmlns:dc="http://purl.org/dc/elements/1.1/" xmlns:cc="http://creativecommons.org/ns#" xmlns:rdf="http://www.w3.org/1999/02/22-rdf-syntax-ns#">
   <cc:Work>
    <dc:type rdf:resource="http://purl.org/dc/dcmitype/StillImage"/>
    <dc:date>2022-06-30T09:07:42.774822</dc:date>
    <dc:format>image/svg+xml</dc:format>
    <dc:creator>
     <cc:Agent>
      <dc:title>Matplotlib v3.5.2, https://matplotlib.org/</dc:title>
     </cc:Agent>
    </dc:creator>
   </cc:Work>
  </rdf:RDF>
 </metadata>
 <defs>
  <style type="text/css">*{stroke-linejoin: round; stroke-linecap: butt}</style>
 </defs>
 <g id="figure_1">
  <g id="patch_1">
   <path d="M 0 360 
L 360 360 
L 360 0 
L 0 0 
z
" style="fill: #ffffff"/>
  </g>
  <g id="axes_1">
   <g id="patch_2">
    <path d="M 51.41 318.04 
L 349.2 318.04 
L 349.2 10.8 
L 51.41 10.8 
z
" style="fill: #eaeaf2"/>
   </g>
   <g id="matplotlib.axis_1">
    <g id="xtick_1">
     <g id="line2d_1">
      <path d="M 92.017727 318.04 
L 92.017727 10.8 
" clip-path="url(#p54c7802fba)" style="fill: none; stroke: #ffffff; stroke-width: 0.8; stroke-linecap: round"/>
     </g>
     <g id="text_1">
      <!-- 2 -->
      <g style="fill: #262626" transform="translate(89.237259 332.197812)scale(0.1 -0.1)">
       <defs>
        <path id="ArialMT-32" d="M 3222 541 
L 3222 0 
L 194 0 
Q 188 203 259 391 
Q 375 700 629 1000 
Q 884 1300 1366 1694 
Q 2113 2306 2375 2664 
Q 2638 3022 2638 3341 
Q 2638 3675 2398 3904 
Q 2159 4134 1775 4134 
Q 1369 4134 1125 3890 
Q 881 3647 878 3216 
L 300 3275 
Q 359 3922 746 4261 
Q 1134 4600 1788 4600 
Q 2447 4600 2831 4234 
Q 3216 3869 3216 3328 
Q 3216 3053 3103 2787 
Q 2991 2522 2730 2228 
Q 2469 1934 1863 1422 
Q 1356 997 1212 845 
Q 1069 694 975 541 
L 3222 541 
z
" transform="scale(0.015625)"/>
       </defs>
       <use xlink:href="#ArialMT-32"/>
      </g>
     </g>
    </g>
    <g id="xtick_2">
     <g id="line2d_2">
      <path d="M 146.161364 318.04 
L 146.161364 10.8 
" clip-path="url(#p54c7802fba)" style="fill: none; stroke: #ffffff; stroke-width: 0.8; stroke-linecap: round"/>
     </g>
     <g id="text_2">
      <!-- 4 -->
      <g style="fill: #262626" transform="translate(143.380895 332.197812)scale(0.1 -0.1)">
       <defs>
        <path id="ArialMT-34" d="M 2069 0 
L 2069 1097 
L 81 1097 
L 81 1613 
L 2172 4581 
L 2631 4581 
L 2631 1613 
L 3250 1613 
L 3250 1097 
L 2631 1097 
L 2631 0 
L 2069 0 
z
M 2069 1613 
L 2069 3678 
L 634 1613 
L 2069 1613 
z
" transform="scale(0.015625)"/>
       </defs>
       <use xlink:href="#ArialMT-34"/>
      </g>
     </g>
    </g>
    <g id="xtick_3">
     <g id="line2d_3">
      <path d="M 200.305 318.04 
L 200.305 10.8 
" clip-path="url(#p54c7802fba)" style="fill: none; stroke: #ffffff; stroke-width: 0.8; stroke-linecap: round"/>
     </g>
     <g id="text_3">
      <!-- 6 -->
      <g style="fill: #262626" transform="translate(197.524531 332.197812)scale(0.1 -0.1)">
       <defs>
        <path id="ArialMT-36" d="M 3184 3459 
L 2625 3416 
Q 2550 3747 2413 3897 
Q 2184 4138 1850 4138 
Q 1581 4138 1378 3988 
Q 1113 3794 959 3422 
Q 806 3050 800 2363 
Q 1003 2672 1297 2822 
Q 1591 2972 1913 2972 
Q 2475 2972 2870 2558 
Q 3266 2144 3266 1488 
Q 3266 1056 3080 686 
Q 2894 316 2569 119 
Q 2244 -78 1831 -78 
Q 1128 -78 684 439 
Q 241 956 241 2144 
Q 241 3472 731 4075 
Q 1159 4600 1884 4600 
Q 2425 4600 2770 4297 
Q 3116 3994 3184 3459 
z
M 888 1484 
Q 888 1194 1011 928 
Q 1134 663 1356 523 
Q 1578 384 1822 384 
Q 2178 384 2434 671 
Q 2691 959 2691 1453 
Q 2691 1928 2437 2201 
Q 2184 2475 1800 2475 
Q 1419 2475 1153 2201 
Q 888 1928 888 1484 
z
" transform="scale(0.015625)"/>
       </defs>
       <use xlink:href="#ArialMT-36"/>
      </g>
     </g>
    </g>
    <g id="xtick_4">
     <g id="line2d_4">
      <path d="M 254.448636 318.04 
L 254.448636 10.8 
" clip-path="url(#p54c7802fba)" style="fill: none; stroke: #ffffff; stroke-width: 0.8; stroke-linecap: round"/>
     </g>
     <g id="text_4">
      <!-- 8 -->
      <g style="fill: #262626" transform="translate(251.668168 332.197812)scale(0.1 -0.1)">
       <defs>
        <path id="ArialMT-38" d="M 1131 2484 
Q 781 2613 612 2850 
Q 444 3088 444 3419 
Q 444 3919 803 4259 
Q 1163 4600 1759 4600 
Q 2359 4600 2725 4251 
Q 3091 3903 3091 3403 
Q 3091 3084 2923 2848 
Q 2756 2613 2416 2484 
Q 2838 2347 3058 2040 
Q 3278 1734 3278 1309 
Q 3278 722 2862 322 
Q 2447 -78 1769 -78 
Q 1091 -78 675 323 
Q 259 725 259 1325 
Q 259 1772 486 2073 
Q 713 2375 1131 2484 
z
M 1019 3438 
Q 1019 3113 1228 2906 
Q 1438 2700 1772 2700 
Q 2097 2700 2305 2904 
Q 2513 3109 2513 3406 
Q 2513 3716 2298 3927 
Q 2084 4138 1766 4138 
Q 1444 4138 1231 3931 
Q 1019 3725 1019 3438 
z
M 838 1322 
Q 838 1081 952 856 
Q 1066 631 1291 507 
Q 1516 384 1775 384 
Q 2178 384 2440 643 
Q 2703 903 2703 1303 
Q 2703 1709 2433 1975 
Q 2163 2241 1756 2241 
Q 1359 2241 1098 1978 
Q 838 1716 838 1322 
z
" transform="scale(0.015625)"/>
       </defs>
       <use xlink:href="#ArialMT-38"/>
      </g>
     </g>
    </g>
    <g id="xtick_5">
     <g id="line2d_5">
      <path d="M 308.592273 318.04 
L 308.592273 10.8 
" clip-path="url(#p54c7802fba)" style="fill: none; stroke: #ffffff; stroke-width: 0.8; stroke-linecap: round"/>
     </g>
     <g id="text_5">
      <!-- 10 -->
      <g style="fill: #262626" transform="translate(303.031335 332.197812)scale(0.1 -0.1)">
       <defs>
        <path id="ArialMT-31" d="M 2384 0 
L 1822 0 
L 1822 3584 
Q 1619 3391 1289 3197 
Q 959 3003 697 2906 
L 697 3450 
Q 1169 3672 1522 3987 
Q 1875 4303 2022 4600 
L 2384 4600 
L 2384 0 
z
" transform="scale(0.015625)"/>
        <path id="ArialMT-30" d="M 266 2259 
Q 266 3072 433 3567 
Q 600 4063 929 4331 
Q 1259 4600 1759 4600 
Q 2128 4600 2406 4451 
Q 2684 4303 2865 4023 
Q 3047 3744 3150 3342 
Q 3253 2941 3253 2259 
Q 3253 1453 3087 958 
Q 2922 463 2592 192 
Q 2263 -78 1759 -78 
Q 1097 -78 719 397 
Q 266 969 266 2259 
z
M 844 2259 
Q 844 1131 1108 757 
Q 1372 384 1759 384 
Q 2147 384 2411 759 
Q 2675 1134 2675 2259 
Q 2675 3391 2411 3762 
Q 2147 4134 1753 4134 
Q 1366 4134 1134 3806 
Q 844 3388 844 2259 
z
" transform="scale(0.015625)"/>
       </defs>
       <use xlink:href="#ArialMT-31"/>
       <use xlink:href="#ArialMT-30" x="55.615234"/>
      </g>
     </g>
    </g>
    <g id="text_6">
     <!-- Rain Fall -->
     <g style="fill: #262626" transform="translate(180.576875 345.343125)scale(0.1 -0.1)">
      <defs>
       <path id="ArialMT-52" d="M 503 0 
L 503 4581 
L 2534 4581 
Q 3147 4581 3465 4457 
Q 3784 4334 3975 4021 
Q 4166 3709 4166 3331 
Q 4166 2844 3850 2509 
Q 3534 2175 2875 2084 
Q 3116 1969 3241 1856 
Q 3506 1613 3744 1247 
L 4541 0 
L 3778 0 
L 3172 953 
Q 2906 1366 2734 1584 
Q 2563 1803 2427 1890 
Q 2291 1978 2150 2013 
Q 2047 2034 1813 2034 
L 1109 2034 
L 1109 0 
L 503 0 
z
M 1109 2559 
L 2413 2559 
Q 2828 2559 3062 2645 
Q 3297 2731 3419 2920 
Q 3541 3109 3541 3331 
Q 3541 3656 3305 3865 
Q 3069 4075 2559 4075 
L 1109 4075 
L 1109 2559 
z
" transform="scale(0.015625)"/>
       <path id="ArialMT-61" d="M 2588 409 
Q 2275 144 1986 34 
Q 1697 -75 1366 -75 
Q 819 -75 525 192 
Q 231 459 231 875 
Q 231 1119 342 1320 
Q 453 1522 633 1644 
Q 813 1766 1038 1828 
Q 1203 1872 1538 1913 
Q 2219 1994 2541 2106 
Q 2544 2222 2544 2253 
Q 2544 2597 2384 2738 
Q 2169 2928 1744 2928 
Q 1347 2928 1158 2789 
Q 969 2650 878 2297 
L 328 2372 
Q 403 2725 575 2942 
Q 747 3159 1072 3276 
Q 1397 3394 1825 3394 
Q 2250 3394 2515 3294 
Q 2781 3194 2906 3042 
Q 3031 2891 3081 2659 
Q 3109 2516 3109 2141 
L 3109 1391 
Q 3109 606 3145 398 
Q 3181 191 3288 0 
L 2700 0 
Q 2613 175 2588 409 
z
M 2541 1666 
Q 2234 1541 1622 1453 
Q 1275 1403 1131 1340 
Q 988 1278 909 1158 
Q 831 1038 831 891 
Q 831 666 1001 516 
Q 1172 366 1500 366 
Q 1825 366 2078 508 
Q 2331 650 2450 897 
Q 2541 1088 2541 1459 
L 2541 1666 
z
" transform="scale(0.015625)"/>
       <path id="ArialMT-69" d="M 425 3934 
L 425 4581 
L 988 4581 
L 988 3934 
L 425 3934 
z
M 425 0 
L 425 3319 
L 988 3319 
L 988 0 
L 425 0 
z
" transform="scale(0.015625)"/>
       <path id="ArialMT-6e" d="M 422 0 
L 422 3319 
L 928 3319 
L 928 2847 
Q 1294 3394 1984 3394 
Q 2284 3394 2536 3286 
Q 2788 3178 2913 3003 
Q 3038 2828 3088 2588 
Q 3119 2431 3119 2041 
L 3119 0 
L 2556 0 
L 2556 2019 
Q 2556 2363 2490 2533 
Q 2425 2703 2258 2804 
Q 2091 2906 1866 2906 
Q 1506 2906 1245 2678 
Q 984 2450 984 1813 
L 984 0 
L 422 0 
z
" transform="scale(0.015625)"/>
       <path id="ArialMT-20" transform="scale(0.015625)"/>
       <path id="ArialMT-46" d="M 525 0 
L 525 4581 
L 3616 4581 
L 3616 4041 
L 1131 4041 
L 1131 2622 
L 3281 2622 
L 3281 2081 
L 1131 2081 
L 1131 0 
L 525 0 
z
" transform="scale(0.015625)"/>
       <path id="ArialMT-6c" d="M 409 0 
L 409 4581 
L 972 4581 
L 972 0 
L 409 0 
z
" transform="scale(0.015625)"/>
      </defs>
      <use xlink:href="#ArialMT-52"/>
      <use xlink:href="#ArialMT-61" x="72.216797"/>
      <use xlink:href="#ArialMT-69" x="127.832031"/>
      <use xlink:href="#ArialMT-6e" x="150.048828"/>
      <use xlink:href="#ArialMT-20" x="205.664062"/>
      <use xlink:href="#ArialMT-46" x="233.447266"/>
      <use xlink:href="#ArialMT-61" x="294.53125"/>
      <use xlink:href="#ArialMT-6c" x="350.146484"/>
      <use xlink:href="#ArialMT-6c" x="372.363281"/>
     </g>
    </g>
   </g>
   <g id="matplotlib.axis_2">
    <g id="ytick_1">
     <g id="line2d_6">
      <path d="M 51.41 261.103916 
L 349.2 261.103916 
" clip-path="url(#p54c7802fba)" style="fill: none; stroke: #ffffff; stroke-width: 0.8; stroke-linecap: round"/>
     </g>
     <g id="text_7">
      <!-- 2 -->
      <g style="fill: #262626" transform="translate(38.849062 264.682822)scale(0.1 -0.1)">
       <use xlink:href="#ArialMT-32"/>
      </g>
     </g>
    </g>
    <g id="ytick_2">
     <g id="line2d_7">
      <path d="M 51.41 202.019301 
L 349.2 202.019301 
" clip-path="url(#p54c7802fba)" style="fill: none; stroke: #ffffff; stroke-width: 0.8; stroke-linecap: round"/>
     </g>
     <g id="text_8">
      <!-- 4 -->
      <g style="fill: #262626" transform="translate(38.849062 205.598207)scale(0.1 -0.1)">
       <use xlink:href="#ArialMT-34"/>
      </g>
     </g>
    </g>
    <g id="ytick_3">
     <g id="line2d_8">
      <path d="M 51.41 142.934685 
L 349.2 142.934685 
" clip-path="url(#p54c7802fba)" style="fill: none; stroke: #ffffff; stroke-width: 0.8; stroke-linecap: round"/>
     </g>
     <g id="text_9">
      <!-- 6 -->
      <g style="fill: #262626" transform="translate(38.849062 146.513592)scale(0.1 -0.1)">
       <use xlink:href="#ArialMT-36"/>
      </g>
     </g>
    </g>
    <g id="ytick_4">
     <g id="line2d_9">
      <path d="M 51.41 83.85007 
L 349.2 83.85007 
" clip-path="url(#p54c7802fba)" style="fill: none; stroke: #ffffff; stroke-width: 0.8; stroke-linecap: round"/>
     </g>
     <g id="text_10">
      <!-- 8 -->
      <g style="fill: #262626" transform="translate(38.849062 87.428976)scale(0.1 -0.1)">
       <use xlink:href="#ArialMT-38"/>
      </g>
     </g>
    </g>
    <g id="ytick_5">
     <g id="line2d_10">
      <path d="M 51.41 24.765455 
L 349.2 24.765455 
" clip-path="url(#p54c7802fba)" style="fill: none; stroke: #ffffff; stroke-width: 0.8; stroke-linecap: round"/>
     </g>
     <g id="text_11">
      <!-- 10 -->
      <g style="fill: #262626" transform="translate(33.288125 28.344361)scale(0.1 -0.1)">
       <use xlink:href="#ArialMT-31"/>
       <use xlink:href="#ArialMT-30" x="55.615234"/>
      </g>
     </g>
    </g>
    <g id="text_12">
     <!-- soil fertility  -->
     <g style="fill: #262626" transform="translate(27.183437 189.145781)rotate(-90)scale(0.1 -0.1)">
      <defs>
       <path id="ArialMT-73" d="M 197 991 
L 753 1078 
Q 800 744 1014 566 
Q 1228 388 1613 388 
Q 2000 388 2187 545 
Q 2375 703 2375 916 
Q 2375 1106 2209 1216 
Q 2094 1291 1634 1406 
Q 1016 1563 777 1677 
Q 538 1791 414 1992 
Q 291 2194 291 2438 
Q 291 2659 392 2848 
Q 494 3038 669 3163 
Q 800 3259 1026 3326 
Q 1253 3394 1513 3394 
Q 1903 3394 2198 3281 
Q 2494 3169 2634 2976 
Q 2775 2784 2828 2463 
L 2278 2388 
Q 2241 2644 2061 2787 
Q 1881 2931 1553 2931 
Q 1166 2931 1000 2803 
Q 834 2675 834 2503 
Q 834 2394 903 2306 
Q 972 2216 1119 2156 
Q 1203 2125 1616 2013 
Q 2213 1853 2448 1751 
Q 2684 1650 2818 1456 
Q 2953 1263 2953 975 
Q 2953 694 2789 445 
Q 2625 197 2315 61 
Q 2006 -75 1616 -75 
Q 969 -75 630 194 
Q 291 463 197 991 
z
" transform="scale(0.015625)"/>
       <path id="ArialMT-6f" d="M 213 1659 
Q 213 2581 725 3025 
Q 1153 3394 1769 3394 
Q 2453 3394 2887 2945 
Q 3322 2497 3322 1706 
Q 3322 1066 3130 698 
Q 2938 331 2570 128 
Q 2203 -75 1769 -75 
Q 1072 -75 642 372 
Q 213 819 213 1659 
z
M 791 1659 
Q 791 1022 1069 705 
Q 1347 388 1769 388 
Q 2188 388 2466 706 
Q 2744 1025 2744 1678 
Q 2744 2294 2464 2611 
Q 2184 2928 1769 2928 
Q 1347 2928 1069 2612 
Q 791 2297 791 1659 
z
" transform="scale(0.015625)"/>
       <path id="ArialMT-66" d="M 556 0 
L 556 2881 
L 59 2881 
L 59 3319 
L 556 3319 
L 556 3672 
Q 556 4006 616 4169 
Q 697 4388 901 4523 
Q 1106 4659 1475 4659 
Q 1713 4659 2000 4603 
L 1916 4113 
Q 1741 4144 1584 4144 
Q 1328 4144 1222 4034 
Q 1116 3925 1116 3625 
L 1116 3319 
L 1763 3319 
L 1763 2881 
L 1116 2881 
L 1116 0 
L 556 0 
z
" transform="scale(0.015625)"/>
       <path id="ArialMT-65" d="M 2694 1069 
L 3275 997 
Q 3138 488 2766 206 
Q 2394 -75 1816 -75 
Q 1088 -75 661 373 
Q 234 822 234 1631 
Q 234 2469 665 2931 
Q 1097 3394 1784 3394 
Q 2450 3394 2872 2941 
Q 3294 2488 3294 1666 
Q 3294 1616 3291 1516 
L 816 1516 
Q 847 969 1125 678 
Q 1403 388 1819 388 
Q 2128 388 2347 550 
Q 2566 713 2694 1069 
z
M 847 1978 
L 2700 1978 
Q 2663 2397 2488 2606 
Q 2219 2931 1791 2931 
Q 1403 2931 1139 2672 
Q 875 2413 847 1978 
z
" transform="scale(0.015625)"/>
       <path id="ArialMT-72" d="M 416 0 
L 416 3319 
L 922 3319 
L 922 2816 
Q 1116 3169 1280 3281 
Q 1444 3394 1641 3394 
Q 1925 3394 2219 3213 
L 2025 2691 
Q 1819 2813 1613 2813 
Q 1428 2813 1281 2702 
Q 1134 2591 1072 2394 
Q 978 2094 978 1738 
L 978 0 
L 416 0 
z
" transform="scale(0.015625)"/>
       <path id="ArialMT-74" d="M 1650 503 
L 1731 6 
Q 1494 -44 1306 -44 
Q 1000 -44 831 53 
Q 663 150 594 308 
Q 525 466 525 972 
L 525 2881 
L 113 2881 
L 113 3319 
L 525 3319 
L 525 4141 
L 1084 4478 
L 1084 3319 
L 1650 3319 
L 1650 2881 
L 1084 2881 
L 1084 941 
Q 1084 700 1114 631 
Q 1144 563 1211 522 
Q 1278 481 1403 481 
Q 1497 481 1650 503 
z
" transform="scale(0.015625)"/>
       <path id="ArialMT-79" d="M 397 -1278 
L 334 -750 
Q 519 -800 656 -800 
Q 844 -800 956 -737 
Q 1069 -675 1141 -563 
Q 1194 -478 1313 -144 
Q 1328 -97 1363 -6 
L 103 3319 
L 709 3319 
L 1400 1397 
Q 1534 1031 1641 628 
Q 1738 1016 1872 1384 
L 2581 3319 
L 3144 3319 
L 1881 -56 
Q 1678 -603 1566 -809 
Q 1416 -1088 1222 -1217 
Q 1028 -1347 759 -1347 
Q 597 -1347 397 -1278 
z
" transform="scale(0.015625)"/>
      </defs>
      <use xlink:href="#ArialMT-73"/>
      <use xlink:href="#ArialMT-6f" x="50"/>
      <use xlink:href="#ArialMT-69" x="105.615234"/>
      <use xlink:href="#ArialMT-6c" x="127.832031"/>
      <use xlink:href="#ArialMT-20" x="150.048828"/>
      <use xlink:href="#ArialMT-66" x="177.832031"/>
      <use xlink:href="#ArialMT-65" x="205.615234"/>
      <use xlink:href="#ArialMT-72" x="261.230469"/>
      <use xlink:href="#ArialMT-74" x="294.53125"/>
      <use xlink:href="#ArialMT-69" x="322.314453"/>
      <use xlink:href="#ArialMT-6c" x="344.53125"/>
      <use xlink:href="#ArialMT-69" x="366.748047"/>
      <use xlink:href="#ArialMT-74" x="388.964844"/>
      <use xlink:href="#ArialMT-79" x="416.748047"/>
      <use xlink:href="#ArialMT-20" x="466.748047"/>
     </g>
    </g>
   </g>
   <g id="PathCollection_1">
    <defs>
     <path id="m024eaa89f0" d="M 0 3 
C 0.795609 3 1.55874 2.683901 2.12132 2.12132 
C 2.683901 1.55874 3 0.795609 3 0 
C 3 -0.795609 2.683901 -1.55874 2.12132 -2.12132 
C 1.55874 -2.683901 0.795609 -3 0 -3 
C -0.795609 -3 -1.55874 -2.683901 -2.12132 -2.12132 
C -2.683901 -1.55874 -3 -0.795609 -3 0 
C -3 0.795609 -2.683901 1.55874 -2.12132 2.12132 
C -1.55874 2.683901 -0.795609 3 0 3 
z
" style="stroke: #ffffff; stroke-width: 0.48"/>
    </defs>
    <g clip-path="url(#p54c7802fba)">
     <use xlink:href="#m024eaa89f0" x="64.945909" y="142.934685" style="fill: #1f77b4; stroke: #ffffff; stroke-width: 0.48"/>
     <use xlink:href="#m024eaa89f0" x="119.089545" y="113.392378" style="fill: #1f77b4; stroke: #ffffff; stroke-width: 0.48"/>
     <use xlink:href="#m024eaa89f0" x="173.233182" y="83.85007" style="fill: #1f77b4; stroke: #ffffff; stroke-width: 0.48"/>
     <use xlink:href="#m024eaa89f0" x="227.376818" y="54.307762" style="fill: #1f77b4; stroke: #ffffff; stroke-width: 0.48"/>
     <use xlink:href="#m024eaa89f0" x="281.520455" y="24.765455" style="fill: #1f77b4; stroke: #ffffff; stroke-width: 0.48"/>
     <use xlink:href="#m024eaa89f0" x="335.664091" y="142.934685" style="fill: #1f77b4; stroke: #ffffff; stroke-width: 0.48"/>
    </g>
   </g>
   <g id="PathCollection_2">
    <defs>
     <path id="m9cb2c3e799" d="M 0 3 
C 0.795609 3 1.55874 2.683901 2.12132 2.12132 
C 2.683901 1.55874 3 0.795609 3 0 
C 3 -0.795609 2.683901 -1.55874 2.12132 -2.12132 
C 1.55874 -2.683901 0.795609 -3 0 -3 
C -0.795609 -3 -1.55874 -2.683901 -2.12132 -2.12132 
C -2.683901 -1.55874 -3 -0.795609 -3 0 
C -3 0.795609 -2.683901 1.55874 -2.12132 2.12132 
C -1.55874 2.683901 -0.795609 3 0 3 
z
" style="stroke: #1f77b4; stroke-opacity: 0.8"/>
    </defs>
    <g clip-path="url(#p54c7802fba)">
     <use xlink:href="#m9cb2c3e799" x="64.945909" y="304.074545" style="fill: #1f77b4; fill-opacity: 0.8; stroke: #1f77b4; stroke-opacity: 0.8"/>
     <use xlink:href="#m9cb2c3e799" x="119.089545" y="271.846573" style="fill: #1f77b4; fill-opacity: 0.8; stroke: #1f77b4; stroke-opacity: 0.8"/>
     <use xlink:href="#m9cb2c3e799" x="173.233182" y="239.618601" style="fill: #1f77b4; fill-opacity: 0.8; stroke: #1f77b4; stroke-opacity: 0.8"/>
     <use xlink:href="#m9cb2c3e799" x="227.376818" y="207.390629" style="fill: #1f77b4; fill-opacity: 0.8; stroke: #1f77b4; stroke-opacity: 0.8"/>
     <use xlink:href="#m9cb2c3e799" x="281.520455" y="175.162657" style="fill: #1f77b4; fill-opacity: 0.8; stroke: #1f77b4; stroke-opacity: 0.8"/>
     <use xlink:href="#m9cb2c3e799" x="335.664091" y="142.934685" style="fill: #1f77b4; fill-opacity: 0.8; stroke: #1f77b4; stroke-opacity: 0.8"/>
    </g>
   </g>
   <g id="PolyCollection_1">
    <defs>
     <path id="mf436278ab1" d="M 64.945909 -55.925455 
L 64.945909 -55.925455 
L 67.680436 -57.55313 
L 70.414963 -59.180805 
L 73.14949 -60.808481 
L 75.884017 -62.436156 
L 78.618545 -64.063831 
L 81.353072 -65.691507 
L 84.087599 -67.319182 
L 86.822126 -68.946857 
L 89.556653 -70.574533 
L 92.29118 -72.202208 
L 95.025707 -73.829883 
L 97.760234 -75.457559 
L 100.494761 -77.085234 
L 103.229288 -78.71291 
L 105.963815 -80.340585 
L 108.698343 -81.96826 
L 111.43287 -83.595936 
L 114.167397 -85.223611 
L 116.901924 -86.851286 
L 119.636451 -88.478962 
L 122.370978 -90.106637 
L 125.105505 -91.734312 
L 127.840032 -93.361988 
L 130.574559 -94.989663 
L 133.309086 -96.617338 
L 136.043613 -98.245014 
L 138.77814 -99.872689 
L 141.512668 -101.500364 
L 144.247195 -103.12804 
L 146.981722 -104.755715 
L 149.716249 -106.383391 
L 152.450776 -108.011066 
L 155.185303 -109.638741 
L 157.91983 -111.266417 
L 160.654357 -112.894092 
L 163.388884 -114.521767 
L 166.123411 -116.149443 
L 168.857938 -117.777118 
L 171.592466 -119.404793 
L 174.326993 -121.032469 
L 177.06152 -122.660144 
L 179.796047 -124.287819 
L 182.530574 -125.915495 
L 185.265101 -127.54317 
L 187.999628 -129.170846 
L 190.734155 -130.798521 
L 193.468682 -132.426196 
L 196.203209 -134.053872 
L 198.937736 -135.681547 
L 201.672264 -137.309222 
L 204.406791 -138.936898 
L 207.141318 -140.564573 
L 209.875845 -142.192248 
L 212.610372 -143.819924 
L 215.344899 -145.447599 
L 218.079426 -147.075274 
L 220.813953 -148.70295 
L 223.54848 -150.330625 
L 226.283007 -151.9583 
L 229.017534 -153.585976 
L 231.752062 -155.213651 
L 234.486589 -156.841327 
L 237.221116 -158.469002 
L 239.955643 -160.096677 
L 242.69017 -161.724353 
L 245.424697 -163.352028 
L 248.159224 -164.979703 
L 250.893751 -166.607379 
L 253.628278 -168.235054 
L 256.362805 -169.862729 
L 259.097332 -171.490405 
L 261.83186 -173.11808 
L 264.566387 -174.745755 
L 267.300914 -176.373431 
L 270.035441 -178.001106 
L 272.769968 -179.628782 
L 275.504495 -181.256457 
L 278.239022 -182.884132 
L 280.973549 -184.511808 
L 283.708076 -186.139483 
L 286.442603 -187.767158 
L 289.17713 -189.394834 
L 291.911657 -191.022509 
L 294.646185 -192.650184 
L 297.380712 -194.27786 
L 300.115239 -195.905535 
L 302.849766 -197.53321 
L 305.584293 -199.160886 
L 308.31882 -200.788561 
L 311.053347 -202.416236 
L 313.787874 -204.043912 
L 316.522401 -205.671587 
L 319.256928 -207.299263 
L 321.991455 -208.926938 
L 324.725983 -210.554613 
L 327.46051 -212.182289 
L 330.195037 -213.809964 
L 332.929564 -215.437639 
L 335.664091 -217.065315 
L 335.664091 -217.065315 
L 335.664091 -217.065315 
L 332.929564 -215.437639 
L 330.195037 -213.809964 
L 327.46051 -212.182289 
L 324.725983 -210.554613 
L 321.991455 -208.926938 
L 319.256928 -207.299263 
L 316.522401 -205.671587 
L 313.787874 -204.043912 
L 311.053347 -202.416236 
L 308.31882 -200.788561 
L 305.584293 -199.160886 
L 302.849766 -197.53321 
L 300.115239 -195.905535 
L 297.380712 -194.27786 
L 294.646185 -192.650184 
L 291.911657 -191.022509 
L 289.17713 -189.394834 
L 286.442603 -187.767158 
L 283.708076 -186.139483 
L 280.973549 -184.511808 
L 278.239022 -182.884132 
L 275.504495 -181.256457 
L 272.769968 -179.628782 
L 270.035441 -178.001106 
L 267.300914 -176.373431 
L 264.566387 -174.745755 
L 261.83186 -173.11808 
L 259.097332 -171.490405 
L 256.362805 -169.862729 
L 253.628278 -168.235054 
L 250.893751 -166.607379 
L 248.159224 -164.979703 
L 245.424697 -163.352028 
L 242.69017 -161.724353 
L 239.955643 -160.096677 
L 237.221116 -158.469002 
L 234.486589 -156.841327 
L 231.752062 -155.213651 
L 229.017534 -153.585976 
L 226.283007 -151.9583 
L 223.54848 -150.330625 
L 220.813953 -148.70295 
L 218.079426 -147.075274 
L 215.344899 -145.447599 
L 212.610372 -143.819924 
L 209.875845 -142.192248 
L 207.141318 -140.564573 
L 204.406791 -138.936898 
L 201.672264 -137.309222 
L 198.937736 -135.681547 
L 196.203209 -134.053872 
L 193.468682 -132.426196 
L 190.734155 -130.798521 
L 187.999628 -129.170846 
L 185.265101 -127.54317 
L 182.530574 -125.915495 
L 179.796047 -124.287819 
L 177.06152 -122.660144 
L 174.326993 -121.032469 
L 171.592466 -119.404793 
L 168.857938 -117.777118 
L 166.123411 -116.149443 
L 163.388884 -114.521767 
L 160.654357 -112.894092 
L 157.91983 -111.266417 
L 155.185303 -109.638741 
L 152.450776 -108.011066 
L 149.716249 -106.383391 
L 146.981722 -104.755715 
L 144.247195 -103.12804 
L 141.512668 -101.500364 
L 138.77814 -99.872689 
L 136.043613 -98.245014 
L 133.309086 -96.617338 
L 130.574559 -94.989663 
L 127.840032 -93.361988 
L 125.105505 -91.734312 
L 122.370978 -90.106637 
L 119.636451 -88.478962 
L 116.901924 -86.851286 
L 114.167397 -85.223611 
L 111.43287 -83.595936 
L 108.698343 -81.96826 
L 105.963815 -80.340585 
L 103.229288 -78.71291 
L 100.494761 -77.085234 
L 97.760234 -75.457559 
L 95.025707 -73.829883 
L 92.29118 -72.202208 
L 89.556653 -70.574533 
L 86.822126 -68.946857 
L 84.087599 -67.319182 
L 81.353072 -65.691507 
L 78.618545 -64.063831 
L 75.884017 -62.436156 
L 73.14949 -60.808481 
L 70.414963 -59.180805 
L 67.680436 -57.55313 
L 64.945909 -55.925455 
z
" style="stroke: #ffffff; stroke-opacity: 0.15"/>
    </defs>
    <g clip-path="url(#p54c7802fba)">
     <use xlink:href="#mf436278ab1" x="0" y="360" style="fill: #1f77b4; fill-opacity: 0.15; stroke: #ffffff; stroke-opacity: 0.15"/>
    </g>
   </g>
   <g id="line2d_11">
    <path d="M 64.945909 304.074545 
L 67.680436 302.44687 
L 70.414963 300.819195 
L 73.14949 299.191519 
L 75.884017 297.563844 
L 78.618545 295.936169 
L 81.353072 294.308493 
L 84.087599 292.680818 
L 86.822126 291.053143 
L 89.556653 289.425467 
L 92.29118 287.797792 
L 95.025707 286.170117 
L 97.760234 284.542441 
L 100.494761 282.914766 
L 103.229288 281.28709 
L 105.963815 279.659415 
L 108.698343 278.03174 
L 111.43287 276.404064 
L 114.167397 274.776389 
L 116.901924 273.148714 
L 119.636451 271.521038 
L 122.370978 269.893363 
L 125.105505 268.265688 
L 127.840032 266.638012 
L 130.574559 265.010337 
L 133.309086 263.382662 
L 136.043613 261.754986 
L 138.77814 260.127311 
L 141.512668 258.499636 
L 144.247195 256.87196 
L 146.981722 255.244285 
L 149.716249 253.616609 
L 152.450776 251.988934 
L 155.185303 250.361259 
L 157.91983 248.733583 
L 160.654357 247.105908 
L 163.388884 245.478233 
L 166.123411 243.850557 
L 168.857938 242.222882 
L 171.592466 240.595207 
L 174.326993 238.967531 
L 177.06152 237.339856 
L 179.796047 235.712181 
L 182.530574 234.084505 
L 185.265101 232.45683 
L 187.999628 230.829154 
L 190.734155 229.201479 
L 193.468682 227.573804 
L 196.203209 225.946128 
L 198.937736 224.318453 
L 201.672264 222.690778 
L 204.406791 221.063102 
L 207.141318 219.435427 
L 209.875845 217.807752 
L 212.610372 216.180076 
L 215.344899 214.552401 
L 218.079426 212.924726 
L 220.813953 211.29705 
L 223.54848 209.669375 
L 226.283007 208.0417 
L 229.017534 206.414024 
L 231.752062 204.786349 
L 234.486589 203.158673 
L 237.221116 201.530998 
L 239.955643 199.903323 
L 242.69017 198.275647 
L 245.424697 196.647972 
L 248.159224 195.020297 
L 250.893751 193.392621 
L 253.628278 191.764946 
L 256.362805 190.137271 
L 259.097332 188.509595 
L 261.83186 186.88192 
L 264.566387 185.254245 
L 267.300914 183.626569 
L 270.035441 181.998894 
L 272.769968 180.371218 
L 275.504495 178.743543 
L 278.239022 177.115868 
L 280.973549 175.488192 
L 283.708076 173.860517 
L 286.442603 172.232842 
L 289.17713 170.605166 
L 291.911657 168.977491 
L 294.646185 167.349816 
L 297.380712 165.72214 
L 300.115239 164.094465 
L 302.849766 162.46679 
L 305.584293 160.839114 
L 308.31882 159.211439 
L 311.053347 157.583764 
L 313.787874 155.956088 
L 316.522401 154.328413 
L 319.256928 152.700737 
L 321.991455 151.073062 
L 324.725983 149.445387 
L 327.46051 147.817711 
L 330.195037 146.190036 
L 332.929564 144.562361 
L 335.664091 142.934685 
" clip-path="url(#p54c7802fba)" style="fill: none; stroke: #1f77b4; stroke-width: 2.25; stroke-linecap: round"/>
   </g>
   <g id="patch_3">
    <path d="M 51.41 318.04 
L 51.41 10.8 
" style="fill: none; stroke: #ffffff; stroke-width: 0.8; stroke-linejoin: miter; stroke-linecap: square"/>
   </g>
   <g id="patch_4">
    <path d="M 51.41 318.04 
L 349.2 318.04 
" style="fill: none; stroke: #ffffff; stroke-width: 0.8; stroke-linejoin: miter; stroke-linecap: square"/>
   </g>
  </g>
 </g>
 <defs>
  <clipPath id="p54c7802fba">
   <rect x="51.41" y="10.8" width="297.79" height="307.24"/>
  </clipPath>
 </defs>
</svg>
