<?xml version="1.0" encoding="utf-8" standalone="no"?>
<!DOCTYPE svg PUBLIC "-//W3C//DTD SVG 1.1//EN"
  "http://www.w3.org/Graphics/SVG/1.1/DTD/svg11.dtd">
<svg xmlns:xlink="http://www.w3.org/1999/xlink" width="360pt" height="360pt" viewBox="0 0 360 360" xmlns="http://www.w3.org/2000/svg" version="1.1">
 <metadata>
  <rdf:RDF xmlns:dc="http://purl.org/dc/elements/1.1/" xmlns:cc="http://creativecommons.org/ns#" xmlns:rdf="http://www.w3.org/1999/02/22-rdf-syntax-ns#">
   <cc:Work>
    <dc:type rdf:resource="http://purl.org/dc/dcmitype/StillImage"/>
    <dc:date>2022-06-30T09:07:42.464249</dc:date>
    <dc:format>image/svg+xml</dc:format>
    <dc:creator>
     <cc:Agent>
      <dc:title>Matplotlib v3.5.2, https://matplotlib.org/</dc:title>
     </cc:Agent>
    </dc:creator>
   </cc:Work>
  </rdf:RDF>
 </metadata>
 <defs>
  <style type="text/css">*{stroke-linejoin: round; stroke-linecap: butt}</style>
 </defs>
 <g id="figure_1">
  <g id="patch_1">
   <path d="M 0 360 
L 360 360 
L 360 0 
L 0 0 
z
" style="fill: #ffffff"/>
  </g>
  <g id="axes_1">
   <g id="patch_2">
    <path d="M 43.04 318.04 
L 349.2 318.04 
L 349.2 14.294663 
L 43.04 14.294663 
z
" style="fill: #eaeaf2"/>
   </g>
   <g id="matplotlib.axis_1">
    <g id="xtick_1">
     <g id="line2d_1">
      <path d="M 84.789091 318.04 
L 84.789091 14.294663 
" clip-path="url(#p383181d4d9)" style="fill: none; stroke: #ffffff; stroke-width: 0.8; stroke-linecap: round"/>
     </g>
     <g id="text_1">
      <!-- 2 -->
      <g style="fill: #262626" transform="translate(82.008622 332.197812)scale(0.1 -0.1)">
       <defs>
        <path id="ArialMT-32" d="M 3222 541 
L 3222 0 
L 194 0 
Q 188 203 259 391 
Q 375 700 629 1000 
Q 884 1300 1366 1694 
Q 2113 2306 2375 2664 
Q 2638 3022 2638 3341 
Q 2638 3675 2398 3904 
Q 2159 4134 1775 4134 
Q 1369 4134 1125 3890 
Q 881 3647 878 3216 
L 300 3275 
Q 359 3922 746 4261 
Q 1134 4600 1788 4600 
Q 2447 4600 2831 4234 
Q 3216 3869 3216 3328 
Q 3216 3053 3103 2787 
Q 2991 2522 2730 2228 
Q 2469 1934 1863 1422 
Q 1356 997 1212 845 
Q 1069 694 975 541 
L 3222 541 
z
" transform="scale(0.015625)"/>
       </defs>
       <use xlink:href="#ArialMT-32"/>
      </g>
     </g>
    </g>
    <g id="xtick_2">
     <g id="line2d_2">
      <path d="M 140.454545 318.04 
L 140.454545 14.294663 
" clip-path="url(#p383181d4d9)" style="fill: none; stroke: #ffffff; stroke-width: 0.8; stroke-linecap: round"/>
     </g>
     <g id="text_2">
      <!-- 4 -->
      <g style="fill: #262626" transform="translate(137.674077 332.197812)scale(0.1 -0.1)">
       <defs>
        <path id="ArialMT-34" d="M 2069 0 
L 2069 1097 
L 81 1097 
L 81 1613 
L 2172 4581 
L 2631 4581 
L 2631 1613 
L 3250 1613 
L 3250 1097 
L 2631 1097 
L 2631 0 
L 2069 0 
z
M 2069 1613 
L 2069 3678 
L 634 1613 
L 2069 1613 
z
" transform="scale(0.015625)"/>
       </defs>
       <use xlink:href="#ArialMT-34"/>
      </g>
     </g>
    </g>
    <g id="xtick_3">
     <g id="line2d_3">
      <path d="M 196.12 318.04 
L 196.12 14.294663 
" clip-path="url(#p383181d4d9)" style="fill: none; stroke: #ffffff; stroke-width: 0.8; stroke-linecap: round"/>
     </g>
     <g id="text_3">
      <!-- 6 -->
      <g style="fill: #262626" transform="translate(193.339531 332.197812)scale(0.1 -0.1)">
       <defs>
        <path id="ArialMT-36" d="M 3184 3459 
L 2625 3416 
Q 2550 3747 2413 3897 
Q 2184 4138 1850 4138 
Q 1581 4138 1378 3988 
Q 1113 3794 959 3422 
Q 806 3050 800 2363 
Q 1003 2672 1297 2822 
Q 1591 2972 1913 2972 
Q 2475 2972 2870 2558 
Q 3266 2144 3266 1488 
Q 3266 1056 3080 686 
Q 2894 316 2569 119 
Q 2244 -78 1831 -78 
Q 1128 -78 684 439 
Q 241 956 241 2144 
Q 241 3472 731 4075 
Q 1159 4600 1884 4600 
Q 2425 4600 2770 4297 
Q 3116 3994 3184 3459 
z
M 888 1484 
Q 888 1194 1011 928 
Q 1134 663 1356 523 
Q 1578 384 1822 384 
Q 2178 384 2434 671 
Q 2691 959 2691 1453 
Q 2691 1928 2437 2201 
Q 2184 2475 1800 2475 
Q 1419 2475 1153 2201 
Q 888 1928 888 1484 
z
" transform="scale(0.015625)"/>
       </defs>
       <use xlink:href="#ArialMT-36"/>
      </g>
     </g>
    </g>
    <g id="xtick_4">
     <g id="line2d_4">
      <path d="M 251.785455 318.04 
L 251.785455 14.294663 
" clip-path="url(#p383181d4d9)" style="fill: none; stroke: #ffffff; stroke-width: 0.8; stroke-linecap: round"/>
     </g>
     <g id="text_4">
      <!-- 8 -->
      <g style="fill: #262626" transform="translate(249.004986 332.197812)scale(0.1 -0.1)">
       <defs>
        <path id="ArialMT-38" d="M 1131 2484 
Q 781 2613 612 2850 
Q 444 3088 444 3419 
Q 444 3919 803 4259 
Q 1163 4600 1759 4600 
Q 2359 4600 2725 4251 
Q 3091 3903 3091 3403 
Q 3091 3084 2923 2848 
Q 2756 2613 2416 2484 
Q 2838 2347 3058 2040 
Q 3278 1734 3278 1309 
Q 3278 722 2862 322 
Q 2447 -78 1769 -78 
Q 1091 -78 675 323 
Q 259 725 259 1325 
Q 259 1772 486 2073 
Q 713 2375 1131 2484 
z
M 1019 3438 
Q 1019 3113 1228 2906 
Q 1438 2700 1772 2700 
Q 2097 2700 2305 2904 
Q 2513 3109 2513 3406 
Q 2513 3716 2298 3927 
Q 2084 4138 1766 4138 
Q 1444 4138 1231 3931 
Q 1019 3725 1019 3438 
z
M 838 1322 
Q 838 1081 952 856 
Q 1066 631 1291 507 
Q 1516 384 1775 384 
Q 2178 384 2440 643 
Q 2703 903 2703 1303 
Q 2703 1709 2433 1975 
Q 2163 2241 1756 2241 
Q 1359 2241 1098 1978 
Q 838 1716 838 1322 
z
" transform="scale(0.015625)"/>
       </defs>
       <use xlink:href="#ArialMT-38"/>
      </g>
     </g>
    </g>
    <g id="xtick_5">
     <g id="line2d_5">
      <path d="M 307.450909 318.04 
L 307.450909 14.294663 
" clip-path="url(#p383181d4d9)" style="fill: none; stroke: #ffffff; stroke-width: 0.8; stroke-linecap: round"/>
     </g>
     <g id="text_5">
      <!-- 10 -->
      <g style="fill: #262626" transform="translate(301.889972 332.197812)scale(0.1 -0.1)">
       <defs>
        <path id="ArialMT-31" d="M 2384 0 
L 1822 0 
L 1822 3584 
Q 1619 3391 1289 3197 
Q 959 3003 697 2906 
L 697 3450 
Q 1169 3672 1522 3987 
Q 1875 4303 2022 4600 
L 2384 4600 
L 2384 0 
z
" transform="scale(0.015625)"/>
        <path id="ArialMT-30" d="M 266 2259 
Q 266 3072 433 3567 
Q 600 4063 929 4331 
Q 1259 4600 1759 4600 
Q 2128 4600 2406 4451 
Q 2684 4303 2865 4023 
Q 3047 3744 3150 3342 
Q 3253 2941 3253 2259 
Q 3253 1453 3087 958 
Q 2922 463 2592 192 
Q 2263 -78 1759 -78 
Q 1097 -78 719 397 
Q 266 969 266 2259 
z
M 844 2259 
Q 844 1131 1108 757 
Q 1372 384 1759 384 
Q 2147 384 2411 759 
Q 2675 1134 2675 2259 
Q 2675 3391 2411 3762 
Q 2147 4134 1753 4134 
Q 1366 4134 1134 3806 
Q 844 3388 844 2259 
z
" transform="scale(0.015625)"/>
       </defs>
       <use xlink:href="#ArialMT-31"/>
       <use xlink:href="#ArialMT-30" x="55.615234"/>
      </g>
     </g>
    </g>
    <g id="text_6">
     <!-- Rain Fall -->
     <g style="fill: #262626" transform="translate(176.391875 345.343125)scale(0.1 -0.1)">
      <defs>
       <path id="ArialMT-52" d="M 503 0 
L 503 4581 
L 2534 4581 
Q 3147 4581 3465 4457 
Q 3784 4334 3975 4021 
Q 4166 3709 4166 3331 
Q 4166 2844 3850 2509 
Q 3534 2175 2875 2084 
Q 3116 1969 3241 1856 
Q 3506 1613 3744 1247 
L 4541 0 
L 3778 0 
L 3172 953 
Q 2906 1366 2734 1584 
Q 2563 1803 2427 1890 
Q 2291 1978 2150 2013 
Q 2047 2034 1813 2034 
L 1109 2034 
L 1109 0 
L 503 0 
z
M 1109 2559 
L 2413 2559 
Q 2828 2559 3062 2645 
Q 3297 2731 3419 2920 
Q 3541 3109 3541 3331 
Q 3541 3656 3305 3865 
Q 3069 4075 2559 4075 
L 1109 4075 
L 1109 2559 
z
" transform="scale(0.015625)"/>
       <path id="ArialMT-61" d="M 2588 409 
Q 2275 144 1986 34 
Q 1697 -75 1366 -75 
Q 819 -75 525 192 
Q 231 459 231 875 
Q 231 1119 342 1320 
Q 453 1522 633 1644 
Q 813 1766 1038 1828 
Q 1203 1872 1538 1913 
Q 2219 1994 2541 2106 
Q 2544 2222 2544 2253 
Q 2544 2597 2384 2738 
Q 2169 2928 1744 2928 
Q 1347 2928 1158 2789 
Q 969 2650 878 2297 
L 328 2372 
Q 403 2725 575 2942 
Q 747 3159 1072 3276 
Q 1397 3394 1825 3394 
Q 2250 3394 2515 3294 
Q 2781 3194 2906 3042 
Q 3031 2891 3081 2659 
Q 3109 2516 3109 2141 
L 3109 1391 
Q 3109 606 3145 398 
Q 3181 191 3288 0 
L 2700 0 
Q 2613 175 2588 409 
z
M 2541 1666 
Q 2234 1541 1622 1453 
Q 1275 1403 1131 1340 
Q 988 1278 909 1158 
Q 831 1038 831 891 
Q 831 666 1001 516 
Q 1172 366 1500 366 
Q 1825 366 2078 508 
Q 2331 650 2450 897 
Q 2541 1088 2541 1459 
L 2541 1666 
z
" transform="scale(0.015625)"/>
       <path id="ArialMT-69" d="M 425 3934 
L 425 4581 
L 988 4581 
L 988 3934 
L 425 3934 
z
M 425 0 
L 425 3319 
L 988 3319 
L 988 0 
L 425 0 
z
" transform="scale(0.015625)"/>
       <path id="ArialMT-6e" d="M 422 0 
L 422 3319 
L 928 3319 
L 928 2847 
Q 1294 3394 1984 3394 
Q 2284 3394 2536 3286 
Q 2788 3178 2913 3003 
Q 3038 2828 3088 2588 
Q 3119 2431 3119 2041 
L 3119 0 
L 2556 0 
L 2556 2019 
Q 2556 2363 2490 2533 
Q 2425 2703 2258 2804 
Q 2091 2906 1866 2906 
Q 1506 2906 1245 2678 
Q 984 2450 984 1813 
L 984 0 
L 422 0 
z
" transform="scale(0.015625)"/>
       <path id="ArialMT-20" transform="scale(0.015625)"/>
       <path id="ArialMT-46" d="M 525 0 
L 525 4581 
L 3616 4581 
L 3616 4041 
L 1131 4041 
L 1131 2622 
L 3281 2622 
L 3281 2081 
L 1131 2081 
L 1131 0 
L 525 0 
z
" transform="scale(0.015625)"/>
       <path id="ArialMT-6c" d="M 409 0 
L 409 4581 
L 972 4581 
L 972 0 
L 409 0 
z
" transform="scale(0.015625)"/>
      </defs>
      <use xlink:href="#ArialMT-52"/>
      <use xlink:href="#ArialMT-61" x="72.216797"/>
      <use xlink:href="#ArialMT-69" x="127.832031"/>
      <use xlink:href="#ArialMT-6e" x="150.048828"/>
      <use xlink:href="#ArialMT-20" x="205.664062"/>
      <use xlink:href="#ArialMT-46" x="233.447266"/>
      <use xlink:href="#ArialMT-61" x="294.53125"/>
      <use xlink:href="#ArialMT-6c" x="350.146484"/>
      <use xlink:href="#ArialMT-6c" x="372.363281"/>
     </g>
    </g>
   </g>
   <g id="matplotlib.axis_2">
    <g id="ytick_1">
     <g id="line2d_6">
      <path d="M 43.04 311.935824 
L 349.2 311.935824 
" clip-path="url(#p383181d4d9)" style="fill: none; stroke: #ffffff; stroke-width: 0.8; stroke-linecap: round"/>
     </g>
     <g id="text_7">
      <!-- 0 -->
      <g style="fill: #262626" transform="translate(30.479062 315.51473)scale(0.1 -0.1)">
       <use xlink:href="#ArialMT-30"/>
      </g>
     </g>
    </g>
    <g id="ytick_2">
     <g id="line2d_7">
      <path d="M 43.04 269.572458 
L 349.2 269.572458 
" clip-path="url(#p383181d4d9)" style="fill: none; stroke: #ffffff; stroke-width: 0.8; stroke-linecap: round"/>
     </g>
     <g id="text_8">
      <!-- 10 -->
      <g style="fill: #262626" transform="translate(24.918125 273.151364)scale(0.1 -0.1)">
       <use xlink:href="#ArialMT-31"/>
       <use xlink:href="#ArialMT-30" x="55.615234"/>
      </g>
     </g>
    </g>
    <g id="ytick_3">
     <g id="line2d_8">
      <path d="M 43.04 227.209091 
L 349.2 227.209091 
" clip-path="url(#p383181d4d9)" style="fill: none; stroke: #ffffff; stroke-width: 0.8; stroke-linecap: round"/>
     </g>
     <g id="text_9">
      <!-- 20 -->
      <g style="fill: #262626" transform="translate(24.918125 230.787997)scale(0.1 -0.1)">
       <use xlink:href="#ArialMT-32"/>
       <use xlink:href="#ArialMT-30" x="55.615234"/>
      </g>
     </g>
    </g>
    <g id="ytick_4">
     <g id="line2d_9">
      <path d="M 43.04 184.845725 
L 349.2 184.845725 
" clip-path="url(#p383181d4d9)" style="fill: none; stroke: #ffffff; stroke-width: 0.8; stroke-linecap: round"/>
     </g>
     <g id="text_10">
      <!-- 30 -->
      <g style="fill: #262626" transform="translate(24.918125 188.424631)scale(0.1 -0.1)">
       <defs>
        <path id="ArialMT-33" d="M 269 1209 
L 831 1284 
Q 928 806 1161 595 
Q 1394 384 1728 384 
Q 2125 384 2398 659 
Q 2672 934 2672 1341 
Q 2672 1728 2419 1979 
Q 2166 2231 1775 2231 
Q 1616 2231 1378 2169 
L 1441 2663 
Q 1497 2656 1531 2656 
Q 1891 2656 2178 2843 
Q 2466 3031 2466 3422 
Q 2466 3731 2256 3934 
Q 2047 4138 1716 4138 
Q 1388 4138 1169 3931 
Q 950 3725 888 3313 
L 325 3413 
Q 428 3978 793 4289 
Q 1159 4600 1703 4600 
Q 2078 4600 2393 4439 
Q 2709 4278 2876 4000 
Q 3044 3722 3044 3409 
Q 3044 3113 2884 2869 
Q 2725 2625 2413 2481 
Q 2819 2388 3044 2092 
Q 3269 1797 3269 1353 
Q 3269 753 2831 336 
Q 2394 -81 1725 -81 
Q 1122 -81 723 278 
Q 325 638 269 1209 
z
" transform="scale(0.015625)"/>
       </defs>
       <use xlink:href="#ArialMT-33"/>
       <use xlink:href="#ArialMT-30" x="55.615234"/>
      </g>
     </g>
    </g>
    <g id="ytick_5">
     <g id="line2d_10">
      <path d="M 43.04 142.482358 
L 349.2 142.482358 
" clip-path="url(#p383181d4d9)" style="fill: none; stroke: #ffffff; stroke-width: 0.8; stroke-linecap: round"/>
     </g>
     <g id="text_11">
      <!-- 40 -->
      <g style="fill: #262626" transform="translate(24.918125 146.061265)scale(0.1 -0.1)">
       <use xlink:href="#ArialMT-34"/>
       <use xlink:href="#ArialMT-30" x="55.615234"/>
      </g>
     </g>
    </g>
    <g id="ytick_6">
     <g id="line2d_11">
      <path d="M 43.04 100.118992 
L 349.2 100.118992 
" clip-path="url(#p383181d4d9)" style="fill: none; stroke: #ffffff; stroke-width: 0.8; stroke-linecap: round"/>
     </g>
     <g id="text_12">
      <!-- 50 -->
      <g style="fill: #262626" transform="translate(24.918125 103.697898)scale(0.1 -0.1)">
       <defs>
        <path id="ArialMT-35" d="M 266 1200 
L 856 1250 
Q 922 819 1161 601 
Q 1400 384 1738 384 
Q 2144 384 2425 690 
Q 2706 997 2706 1503 
Q 2706 1984 2436 2262 
Q 2166 2541 1728 2541 
Q 1456 2541 1237 2417 
Q 1019 2294 894 2097 
L 366 2166 
L 809 4519 
L 3088 4519 
L 3088 3981 
L 1259 3981 
L 1013 2750 
Q 1425 3038 1878 3038 
Q 2478 3038 2890 2622 
Q 3303 2206 3303 1553 
Q 3303 931 2941 478 
Q 2500 -78 1738 -78 
Q 1113 -78 717 272 
Q 322 622 266 1200 
z
" transform="scale(0.015625)"/>
       </defs>
       <use xlink:href="#ArialMT-35"/>
       <use xlink:href="#ArialMT-30" x="55.615234"/>
      </g>
     </g>
    </g>
    <g id="ytick_7">
     <g id="line2d_12">
      <path d="M 43.04 57.755625 
L 349.2 57.755625 
" clip-path="url(#p383181d4d9)" style="fill: none; stroke: #ffffff; stroke-width: 0.8; stroke-linecap: round"/>
     </g>
     <g id="text_13">
      <!-- 60 -->
      <g style="fill: #262626" transform="translate(24.918125 61.334532)scale(0.1 -0.1)">
       <use xlink:href="#ArialMT-36"/>
       <use xlink:href="#ArialMT-30" x="55.615234"/>
      </g>
     </g>
    </g>
    <g id="ytick_8">
     <g id="line2d_13">
      <path d="M 43.04 15.392259 
L 349.2 15.392259 
" clip-path="url(#p383181d4d9)" style="fill: none; stroke: #ffffff; stroke-width: 0.8; stroke-linecap: round"/>
     </g>
     <g id="text_14">
      <!-- 70 -->
      <g style="fill: #262626" transform="translate(24.918125 18.971165)scale(0.1 -0.1)">
       <defs>
        <path id="ArialMT-37" d="M 303 3981 
L 303 4522 
L 3269 4522 
L 3269 4084 
Q 2831 3619 2401 2847 
Q 1972 2075 1738 1259 
Q 1569 684 1522 0 
L 944 0 
Q 953 541 1156 1306 
Q 1359 2072 1739 2783 
Q 2119 3494 2547 3981 
L 303 3981 
z
" transform="scale(0.015625)"/>
       </defs>
       <use xlink:href="#ArialMT-37"/>
       <use xlink:href="#ArialMT-30" x="55.615234"/>
      </g>
     </g>
    </g>
    <g id="text_15">
     <!-- Crop yield  -->
     <g style="fill: #262626" transform="translate(18.813437 190.064988)rotate(-90)scale(0.1 -0.1)">
      <defs>
       <path id="ArialMT-43" d="M 3763 1606 
L 4369 1453 
Q 4178 706 3683 314 
Q 3188 -78 2472 -78 
Q 1731 -78 1267 223 
Q 803 525 561 1097 
Q 319 1669 319 2325 
Q 319 3041 592 3573 
Q 866 4106 1370 4382 
Q 1875 4659 2481 4659 
Q 3169 4659 3637 4309 
Q 4106 3959 4291 3325 
L 3694 3184 
Q 3534 3684 3231 3912 
Q 2928 4141 2469 4141 
Q 1941 4141 1586 3887 
Q 1231 3634 1087 3207 
Q 944 2781 944 2328 
Q 944 1744 1114 1308 
Q 1284 872 1643 656 
Q 2003 441 2422 441 
Q 2931 441 3284 734 
Q 3638 1028 3763 1606 
z
" transform="scale(0.015625)"/>
       <path id="ArialMT-72" d="M 416 0 
L 416 3319 
L 922 3319 
L 922 2816 
Q 1116 3169 1280 3281 
Q 1444 3394 1641 3394 
Q 1925 3394 2219 3213 
L 2025 2691 
Q 1819 2813 1613 2813 
Q 1428 2813 1281 2702 
Q 1134 2591 1072 2394 
Q 978 2094 978 1738 
L 978 0 
L 416 0 
z
" transform="scale(0.015625)"/>
       <path id="ArialMT-6f" d="M 213 1659 
Q 213 2581 725 3025 
Q 1153 3394 1769 3394 
Q 2453 3394 2887 2945 
Q 3322 2497 3322 1706 
Q 3322 1066 3130 698 
Q 2938 331 2570 128 
Q 2203 -75 1769 -75 
Q 1072 -75 642 372 
Q 213 819 213 1659 
z
M 791 1659 
Q 791 1022 1069 705 
Q 1347 388 1769 388 
Q 2188 388 2466 706 
Q 2744 1025 2744 1678 
Q 2744 2294 2464 2611 
Q 2184 2928 1769 2928 
Q 1347 2928 1069 2612 
Q 791 2297 791 1659 
z
" transform="scale(0.015625)"/>
       <path id="ArialMT-70" d="M 422 -1272 
L 422 3319 
L 934 3319 
L 934 2888 
Q 1116 3141 1344 3267 
Q 1572 3394 1897 3394 
Q 2322 3394 2647 3175 
Q 2972 2956 3137 2557 
Q 3303 2159 3303 1684 
Q 3303 1175 3120 767 
Q 2938 359 2589 142 
Q 2241 -75 1856 -75 
Q 1575 -75 1351 44 
Q 1128 163 984 344 
L 984 -1272 
L 422 -1272 
z
M 931 1641 
Q 931 1000 1190 694 
Q 1450 388 1819 388 
Q 2194 388 2461 705 
Q 2728 1022 2728 1688 
Q 2728 2322 2467 2637 
Q 2206 2953 1844 2953 
Q 1484 2953 1207 2617 
Q 931 2281 931 1641 
z
" transform="scale(0.015625)"/>
       <path id="ArialMT-79" d="M 397 -1278 
L 334 -750 
Q 519 -800 656 -800 
Q 844 -800 956 -737 
Q 1069 -675 1141 -563 
Q 1194 -478 1313 -144 
Q 1328 -97 1363 -6 
L 103 3319 
L 709 3319 
L 1400 1397 
Q 1534 1031 1641 628 
Q 1738 1016 1872 1384 
L 2581 3319 
L 3144 3319 
L 1881 -56 
Q 1678 -603 1566 -809 
Q 1416 -1088 1222 -1217 
Q 1028 -1347 759 -1347 
Q 597 -1347 397 -1278 
z
" transform="scale(0.015625)"/>
       <path id="ArialMT-65" d="M 2694 1069 
L 3275 997 
Q 3138 488 2766 206 
Q 2394 -75 1816 -75 
Q 1088 -75 661 373 
Q 234 822 234 1631 
Q 234 2469 665 2931 
Q 1097 3394 1784 3394 
Q 2450 3394 2872 2941 
Q 3294 2488 3294 1666 
Q 3294 1616 3291 1516 
L 816 1516 
Q 847 969 1125 678 
Q 1403 388 1819 388 
Q 2128 388 2347 550 
Q 2566 713 2694 1069 
z
M 847 1978 
L 2700 1978 
Q 2663 2397 2488 2606 
Q 2219 2931 1791 2931 
Q 1403 2931 1139 2672 
Q 875 2413 847 1978 
z
" transform="scale(0.015625)"/>
       <path id="ArialMT-64" d="M 2575 0 
L 2575 419 
Q 2259 -75 1647 -75 
Q 1250 -75 917 144 
Q 584 363 401 755 
Q 219 1147 219 1656 
Q 219 2153 384 2558 
Q 550 2963 881 3178 
Q 1213 3394 1622 3394 
Q 1922 3394 2156 3267 
Q 2391 3141 2538 2938 
L 2538 4581 
L 3097 4581 
L 3097 0 
L 2575 0 
z
M 797 1656 
Q 797 1019 1065 703 
Q 1334 388 1700 388 
Q 2069 388 2326 689 
Q 2584 991 2584 1609 
Q 2584 2291 2321 2609 
Q 2059 2928 1675 2928 
Q 1300 2928 1048 2622 
Q 797 2316 797 1656 
z
" transform="scale(0.015625)"/>
      </defs>
      <use xlink:href="#ArialMT-43"/>
      <use xlink:href="#ArialMT-72" x="72.216797"/>
      <use xlink:href="#ArialMT-6f" x="105.517578"/>
      <use xlink:href="#ArialMT-70" x="161.132812"/>
      <use xlink:href="#ArialMT-20" x="216.748047"/>
      <use xlink:href="#ArialMT-79" x="244.53125"/>
      <use xlink:href="#ArialMT-69" x="294.53125"/>
      <use xlink:href="#ArialMT-65" x="316.748047"/>
      <use xlink:href="#ArialMT-6c" x="372.363281"/>
      <use xlink:href="#ArialMT-64" x="394.580078"/>
      <use xlink:href="#ArialMT-20" x="450.195312"/>
     </g>
    </g>
   </g>
   <g id="PathCollection_1">
    <defs>
     <path id="m8b9a3fd290" d="M 0 3 
C 0.795609 3 1.55874 2.683901 2.12132 2.12132 
C 2.683901 1.55874 3 0.795609 3 0 
C 3 -0.795609 2.683901 -1.55874 2.12132 -2.12132 
C 1.55874 -2.683901 0.795609 -3 0 -3 
C -0.795609 -3 -1.55874 -2.683901 -2.12132 -2.12132 
C -2.683901 -1.55874 -3 -0.795609 -3 0 
C -3 0.795609 -2.683901 1.55874 -2.12132 2.12132 
C -1.55874 2.683901 -0.795609 3 0 3 
z
" style="stroke: #ffffff; stroke-width: 0.48"/>
    </defs>
    <g clip-path="url(#p383181d4d9)">
     <use xlink:href="#m8b9a3fd290" x="56.956364" y="290.754141" style="fill: #1f77b4; stroke: #ffffff; stroke-width: 0.48"/>
     <use xlink:href="#m8b9a3fd290" x="112.621818" y="261.099784" style="fill: #1f77b4; stroke: #ffffff; stroke-width: 0.48"/>
     <use xlink:href="#m8b9a3fd290" x="168.287273" y="252.627111" style="fill: #1f77b4; stroke: #ffffff; stroke-width: 0.48"/>
     <use xlink:href="#m8b9a3fd290" x="223.952727" y="100.118992" style="fill: #1f77b4; stroke: #ffffff; stroke-width: 0.48"/>
     <use xlink:href="#m8b9a3fd290" x="279.618182" y="28.101269" style="fill: #1f77b4; stroke: #ffffff; stroke-width: 0.48"/>
     <use xlink:href="#m8b9a3fd290" x="335.283636" y="227.209091" style="fill: #1f77b4; stroke: #ffffff; stroke-width: 0.48"/>
    </g>
   </g>
   <g id="PathCollection_2">
    <defs>
     <path id="ma028267465" d="M 0 3 
C 0.795609 3 1.55874 2.683901 2.12132 2.12132 
C 2.683901 1.55874 3 0.795609 3 0 
C 3 -0.795609 2.683901 -1.55874 2.12132 -2.12132 
C 1.55874 -2.683901 0.795609 -3 0 -3 
C -0.795609 -3 -1.55874 -2.683901 -2.12132 -2.12132 
C -2.683901 -1.55874 -3 -0.795609 -3 0 
C -3 0.795609 -2.683901 1.55874 -2.12132 2.12132 
C -1.55874 2.683901 -0.795609 3 0 3 
z
" style="stroke: #1f77b4; stroke-opacity: 0.8"/>
    </defs>
    <g clip-path="url(#p383181d4d9)">
     <use xlink:href="#ma028267465" x="56.956364" y="304.233394" style="fill: #1f77b4; fill-opacity: 0.8; stroke: #1f77b4; stroke-opacity: 0.8"/>
     <use xlink:href="#ma028267465" x="112.621818" y="288.828533" style="fill: #1f77b4; fill-opacity: 0.8; stroke: #1f77b4; stroke-opacity: 0.8"/>
     <use xlink:href="#ma028267465" x="168.287273" y="273.423673" style="fill: #1f77b4; fill-opacity: 0.8; stroke: #1f77b4; stroke-opacity: 0.8"/>
     <use xlink:href="#ma028267465" x="223.952727" y="258.018812" style="fill: #1f77b4; fill-opacity: 0.8; stroke: #1f77b4; stroke-opacity: 0.8"/>
     <use xlink:href="#ma028267465" x="279.618182" y="242.613952" style="fill: #1f77b4; fill-opacity: 0.8; stroke: #1f77b4; stroke-opacity: 0.8"/>
     <use xlink:href="#ma028267465" x="335.283636" y="227.209091" style="fill: #1f77b4; fill-opacity: 0.8; stroke: #1f77b4; stroke-opacity: 0.8"/>
    </g>
   </g>
   <g id="PolyCollection_1">
    <defs>
     <path id="m55a098f7e5" d="M 56.956364 -55.766606 
L 56.956364 -55.766606 
L 59.76775 -56.544629 
L 62.579137 -57.322653 
L 65.390523 -58.100676 
L 68.20191 -58.878699 
L 71.013297 -59.656723 
L 73.824683 -60.434746 
L 76.63607 -61.212769 
L 79.447456 -61.990792 
L 82.258843 -62.768816 
L 85.07023 -63.546839 
L 87.881616 -64.324862 
L 90.693003 -65.102885 
L 93.504389 -65.880909 
L 96.315776 -66.658932 
L 99.127163 -67.436955 
L 101.938549 -68.214978 
L 104.749936 -68.993002 
L 107.561322 -69.771025 
L 110.372709 -70.549048 
L 113.184096 -71.327071 
L 115.995482 -72.105095 
L 118.806869 -72.883118 
L 121.618255 -73.661141 
L 124.429642 -74.439164 
L 127.241028 -75.217188 
L 130.052415 -75.995211 
L 132.863802 -76.773234 
L 135.675188 -77.551257 
L 138.486575 -78.329281 
L 141.297961 -79.107304 
L 144.109348 -79.885327 
L 146.920735 -80.663351 
L 149.732121 -81.441374 
L 152.543508 -82.219397 
L 155.354894 -82.99742 
L 158.166281 -83.775444 
L 160.977668 -84.553467 
L 163.789054 -85.33149 
L 166.600441 -86.109513 
L 169.411827 -86.887537 
L 172.223214 -87.66556 
L 175.034601 -88.443583 
L 177.845987 -89.221606 
L 180.657374 -89.99963 
L 183.46876 -90.777653 
L 186.280147 -91.555676 
L 189.091534 -92.333699 
L 191.90292 -93.111723 
L 194.714307 -93.889746 
L 197.525693 -94.667769 
L 200.33708 -95.445792 
L 203.148466 -96.223816 
L 205.959853 -97.001839 
L 208.77124 -97.779862 
L 211.582626 -98.557885 
L 214.394013 -99.335909 
L 217.205399 -100.113932 
L 220.016786 -100.891955 
L 222.828173 -101.669978 
L 225.639559 -102.448002 
L 228.450946 -103.226025 
L 231.262332 -104.004048 
L 234.073719 -104.782072 
L 236.885106 -105.560095 
L 239.696492 -106.338118 
L 242.507879 -107.116141 
L 245.319265 -107.894165 
L 248.130652 -108.672188 
L 250.942039 -109.450211 
L 253.753425 -110.228234 
L 256.564812 -111.006258 
L 259.376198 -111.784281 
L 262.187585 -112.562304 
L 264.998972 -113.340327 
L 267.810358 -114.118351 
L 270.621745 -114.896374 
L 273.433131 -115.674397 
L 276.244518 -116.45242 
L 279.055904 -117.230444 
L 281.867291 -118.008467 
L 284.678678 -118.78649 
L 287.490064 -119.564513 
L 290.301451 -120.342537 
L 293.112837 -121.12056 
L 295.924224 -121.898583 
L 298.735611 -122.676606 
L 301.546997 -123.45463 
L 304.358384 -124.232653 
L 307.16977 -125.010676 
L 309.981157 -125.788699 
L 312.792544 -126.566723 
L 315.60393 -127.344746 
L 318.415317 -128.122769 
L 321.226703 -128.900793 
L 324.03809 -129.678816 
L 326.849477 -130.456839 
L 329.660863 -131.234862 
L 332.47225 -132.012886 
L 335.283636 -132.790909 
L 335.283636 -132.790909 
L 335.283636 -132.790909 
L 332.47225 -132.012886 
L 329.660863 -131.234862 
L 326.849477 -130.456839 
L 324.03809 -129.678816 
L 321.226703 -128.900793 
L 318.415317 -128.122769 
L 315.60393 -127.344746 
L 312.792544 -126.566723 
L 309.981157 -125.788699 
L 307.16977 -125.010676 
L 304.358384 -124.232653 
L 301.546997 -123.45463 
L 298.735611 -122.676606 
L 295.924224 -121.898583 
L 293.112837 -121.12056 
L 290.301451 -120.342537 
L 287.490064 -119.564513 
L 284.678678 -118.78649 
L 281.867291 -118.008467 
L 279.055904 -117.230444 
L 276.244518 -116.45242 
L 273.433131 -115.674397 
L 270.621745 -114.896374 
L 267.810358 -114.118351 
L 264.998972 -113.340327 
L 262.187585 -112.562304 
L 259.376198 -111.784281 
L 256.564812 -111.006258 
L 253.753425 -110.228234 
L 250.942039 -109.450211 
L 248.130652 -108.672188 
L 245.319265 -107.894165 
L 242.507879 -107.116141 
L 239.696492 -106.338118 
L 236.885106 -105.560095 
L 234.073719 -104.782072 
L 231.262332 -104.004048 
L 228.450946 -103.226025 
L 225.639559 -102.448002 
L 222.828173 -101.669978 
L 220.016786 -100.891955 
L 217.205399 -100.113932 
L 214.394013 -99.335909 
L 211.582626 -98.557885 
L 208.77124 -97.779862 
L 205.959853 -97.001839 
L 203.148466 -96.223816 
L 200.33708 -95.445792 
L 197.525693 -94.667769 
L 194.714307 -93.889746 
L 191.90292 -93.111723 
L 189.091534 -92.333699 
L 186.280147 -91.555676 
L 183.46876 -90.777653 
L 180.657374 -89.99963 
L 177.845987 -89.221606 
L 175.034601 -88.443583 
L 172.223214 -87.66556 
L 169.411827 -86.887537 
L 166.600441 -86.109513 
L 163.789054 -85.33149 
L 160.977668 -84.553467 
L 158.166281 -83.775444 
L 155.354894 -82.99742 
L 152.543508 -82.219397 
L 149.732121 -81.441374 
L 146.920735 -80.663351 
L 144.109348 -79.885327 
L 141.297961 -79.107304 
L 138.486575 -78.329281 
L 135.675188 -77.551257 
L 132.863802 -76.773234 
L 130.052415 -75.995211 
L 127.241028 -75.217188 
L 124.429642 -74.439164 
L 121.618255 -73.661141 
L 118.806869 -72.883118 
L 115.995482 -72.105095 
L 113.184096 -71.327071 
L 110.372709 -70.549048 
L 107.561322 -69.771025 
L 104.749936 -68.993002 
L 101.938549 -68.214978 
L 99.127163 -67.436955 
L 96.315776 -66.658932 
L 93.504389 -65.880909 
L 90.693003 -65.102885 
L 87.881616 -64.324862 
L 85.07023 -63.546839 
L 82.258843 -62.768816 
L 79.447456 -61.990792 
L 76.63607 -61.212769 
L 73.824683 -60.434746 
L 71.013297 -59.656723 
L 68.20191 -58.878699 
L 65.390523 -58.100676 
L 62.579137 -57.322653 
L 59.76775 -56.544629 
L 56.956364 -55.766606 
z
" style="stroke: #ffffff; stroke-opacity: 0.15"/>
    </defs>
    <g clip-path="url(#p383181d4d9)">
     <use xlink:href="#m55a098f7e5" x="0" y="360" style="fill: #1f77b4; fill-opacity: 0.15; stroke: #ffffff; stroke-opacity: 0.15"/>
    </g>
   </g>
   <g id="line2d_14">
    <path d="M 56.956364 304.233394 
L 59.76775 303.455371 
L 62.579137 302.677347 
L 65.390523 301.899324 
L 68.20191 301.121301 
L 71.013297 300.343277 
L 73.824683 299.565254 
L 76.63607 298.787231 
L 79.447456 298.009208 
L 82.258843 297.231184 
L 85.07023 296.453161 
L 87.881616 295.675138 
L 90.693003 294.897115 
L 93.504389 294.119091 
L 96.315776 293.341068 
L 99.127163 292.563045 
L 101.938549 291.785022 
L 104.749936 291.006998 
L 107.561322 290.228975 
L 110.372709 289.450952 
L 113.184096 288.672929 
L 115.995482 287.894905 
L 118.806869 287.116882 
L 121.618255 286.338859 
L 124.429642 285.560836 
L 127.241028 284.782812 
L 130.052415 284.004789 
L 132.863802 283.226766 
L 135.675188 282.448743 
L 138.486575 281.670719 
L 141.297961 280.892696 
L 144.109348 280.114673 
L 146.920735 279.336649 
L 149.732121 278.558626 
L 152.543508 277.780603 
L 155.354894 277.00258 
L 158.166281 276.224556 
L 160.977668 275.446533 
L 163.789054 274.66851 
L 166.600441 273.890487 
L 169.411827 273.112463 
L 172.223214 272.33444 
L 175.034601 271.556417 
L 177.845987 270.778394 
L 180.657374 270.00037 
L 183.46876 269.222347 
L 186.280147 268.444324 
L 189.091534 267.666301 
L 191.90292 266.888277 
L 194.714307 266.110254 
L 197.525693 265.332231 
L 200.33708 264.554208 
L 203.148466 263.776184 
L 205.959853 262.998161 
L 208.77124 262.220138 
L 211.582626 261.442115 
L 214.394013 260.664091 
L 217.205399 259.886068 
L 220.016786 259.108045 
L 222.828173 258.330022 
L 225.639559 257.551998 
L 228.450946 256.773975 
L 231.262332 255.995952 
L 234.073719 255.217928 
L 236.885106 254.439905 
L 239.696492 253.661882 
L 242.507879 252.883859 
L 245.319265 252.105835 
L 248.130652 251.327812 
L 250.942039 250.549789 
L 253.753425 249.771766 
L 256.564812 248.993742 
L 259.376198 248.215719 
L 262.187585 247.437696 
L 264.998972 246.659673 
L 267.810358 245.881649 
L 270.621745 245.103626 
L 273.433131 244.325603 
L 276.244518 243.54758 
L 279.055904 242.769556 
L 281.867291 241.991533 
L 284.678678 241.21351 
L 287.490064 240.435487 
L 290.301451 239.657463 
L 293.112837 238.87944 
L 295.924224 238.101417 
L 298.735611 237.323394 
L 301.546997 236.54537 
L 304.358384 235.767347 
L 307.16977 234.989324 
L 309.981157 234.211301 
L 312.792544 233.433277 
L 315.60393 232.655254 
L 318.415317 231.877231 
L 321.226703 231.099207 
L 324.03809 230.321184 
L 326.849477 229.543161 
L 329.660863 228.765138 
L 332.47225 227.987114 
L 335.283636 227.209091 
" clip-path="url(#p383181d4d9)" style="fill: none; stroke: #1f77b4; stroke-width: 2.25; stroke-linecap: round"/>
   </g>
   <g id="patch_3">
    <path d="M 43.04 318.04 
L 43.04 14.294663 
" style="fill: none; stroke: #ffffff; stroke-width: 0.8; stroke-linejoin: miter; stroke-linecap: square"/>
   </g>
   <g id="patch_4">
    <path d="M 43.04 318.04 
L 349.2 318.04 
" style="fill: none; stroke: #ffffff; stroke-width: 0.8; stroke-linejoin: miter; stroke-linecap: square"/>
   </g>
  </g>
 </g>
 <defs>
  <clipPath id="p383181d4d9">
   <rect x="43.04" y="14.294663" width="306.16" height="303.745337"/>
  </clipPath>
 </defs>
</svg>
